<svg xmlns="http://www.w3.org/2000/svg" width="375" height="742" fill="none" xmlns:v="https://vecta.io/nano"><style><![CDATA[.B{fill:#3b3b3b}.C{fill:#8f8f8f}.D{stroke-linecap:round}.E{stroke-linejoin:round}.F{stroke-dasharray:1 4}]]></style><g filter="url(#A)"><rect x="24" y="47" width="327" height="634" rx="24" fill="#fff"/></g><path d="M100.485 631.54c.208 0 .368.06.48.18a.6.6 0 0 1 .168.444 1.18 1.18 0 0 1-.168.576l-3.828 6.948c-.16.272-.38.408-.66.408a.78.78 0 0 1-.516-.192.65.65 0 0 1-.216-.492.8.8 0 0 1 .12-.408l3.444-6.216h-3.624c-.48 0-.72-.204-.72-.612 0-.424.24-.636.72-.636h4.8zm7.196 0c.208 0 .368.06.48.18a.6.6 0 0 1 .168.444 1.18 1.18 0 0 1-.168.576l-3.828 6.948c-.16.272-.38.408-.66.408a.78.78 0 0 1-.516-.192.65.65 0 0 1-.216-.492.8.8 0 0 1 .12-.408l3.444-6.216h-3.624c-.48 0-.72-.204-.72-.612 0-.424.24-.636.72-.636h4.8zm4.483-.108c1.072 0 1.896.364 2.472 1.092.584.72.876 1.752.876 3.096 0 .92-.136 1.72-.408 2.4-.272.672-.664 1.188-1.176 1.548-.504.36-1.1.54-1.788.54-.456 0-.916-.08-1.38-.24-.456-.168-.844-.392-1.164-.672-.104-.088-.18-.172-.228-.252a.75.75 0 0 1-.06-.312c0-.176.048-.324.144-.444.104-.128.224-.192.36-.192.08 0 .156.016.228.048.072.024.16.068.264.132.664.464 1.256.696 1.776.696.584 0 1.044-.268 1.38-.804.336-.544.512-1.304.528-2.28-.184.36-.46.648-.828.864-.368.208-.78.312-1.236.312a2.66 2.66 0 0 1-1.344-.336 2.48 2.48 0 0 1-.924-.96c-.216-.416-.324-.888-.324-1.416 0-.544.12-1.028.36-1.452a2.65 2.65 0 0 1 1.008-1.008c.432-.24.92-.36 1.464-.36zm.084 4.308c.448 0 .808-.14 1.08-.42.28-.288.42-.66.42-1.116 0-.464-.14-.836-.42-1.116-.272-.288-.632-.432-1.08-.432-.44 0-.792.144-1.056.432-.264.28-.396.652-.396 1.116s.132.836.396 1.116.616.42 1.056.42zm7.111-4.308c1.072 0 1.896.364 2.472 1.092.584.72.876 1.752.876 3.096 0 .92-.136 1.72-.408 2.4-.272.672-.664 1.188-1.176 1.548-.504.36-1.1.54-1.788.54-.456 0-.916-.08-1.38-.24-.456-.168-.844-.392-1.164-.672-.104-.088-.18-.172-.228-.252a.75.75 0 0 1-.06-.312c0-.176.048-.324.144-.444.104-.128.224-.192.36-.192.08 0 .156.016.228.048.072.024.16.068.264.132.664.464 1.256.696 1.776.696.584 0 1.044-.268 1.38-.804.336-.544.512-1.304.528-2.28-.184.36-.46.648-.828.864-.368.208-.78.312-1.236.312a2.66 2.66 0 0 1-1.344-.336 2.48 2.48 0 0 1-.924-.96c-.216-.416-.324-.888-.324-1.416 0-.544.12-1.028.36-1.452a2.65 2.65 0 0 1 1.008-1.008c.432-.24.92-.36 1.464-.36zm.084 4.308c.448 0 .808-.14 1.08-.42.28-.288.42-.66.42-1.116 0-.464-.14-.836-.42-1.116-.272-.288-.632-.432-1.08-.432-.44 0-.792.144-1.056.432-.264.28-.396.652-.396 1.116s.132.836.396 1.116.616.42 1.056.42zm9.799 3.012c.48 0 .72.204.72.612 0 .424-.24.636-.72.636h-4.056c-.488 0-.732-.212-.732-.636 0-.408.244-.612.732-.612h1.248v-5.472l-1.152.708a.62.62 0 0 1-.3.096c-.168 0-.312-.072-.432-.216-.112-.144-.168-.304-.168-.48a.6.6 0 0 1 .312-.54l1.86-1.152c.24-.144.468-.216.684-.216a.73.73 0 0 1 .54.204c.136.136.204.324.204.564v6.504h1.26zm4.784 1.356c-1 0-1.764-.368-2.292-1.104-.528-.744-.792-1.824-.792-3.24 0-1.408.264-2.48.792-3.216.528-.744 1.292-1.116 2.292-1.116s1.764.372 2.292 1.116c.528.736.792 1.808.792 3.216s-.264 2.484-.792 3.228-1.292 1.116-2.292 1.116zm0-1.212a1.24 1.24 0 0 0 1.188-.744c.248-.504.372-1.3.372-2.388 0-1.096-.124-1.888-.372-2.376a1.24 1.24 0 0 0-1.188-.744 1.24 1.24 0 0 0-1.188.744c-.248.496-.372 1.288-.372 2.376s.124 1.884.372 2.388a1.24 1.24 0 0 0 1.188.744zm9.607-.144c.48 0 .72.204.72.612 0 .424-.24.636-.72.636h-4.056c-.488 0-.732-.212-.732-.636 0-.408.244-.612.732-.612h1.248v-5.472l-1.152.708a.62.62 0 0 1-.3.096c-.168 0-.312-.072-.432-.216-.112-.144-.168-.304-.168-.48a.6.6 0 0 1 .312-.54l1.86-1.152c.24-.144.468-.216.684-.216a.73.73 0 0 1 .54.204c.136.136.204.324.204.564v6.504h1.26zm7.219-7.212c.208 0 .368.06.48.18a.6.6 0 0 1 .168.444 1.18 1.18 0 0 1-.168.576l-3.828 6.948c-.16.272-.38.408-.66.408a.78.78 0 0 1-.516-.192.65.65 0 0 1-.216-.492.8.8 0 0 1 .12-.408l3.444-6.216h-3.624c-.48 0-.72-.204-.72-.612 0-.424.24-.636.72-.636h4.8zm6.38 4.116c.496.136.876.384 1.14.744.272.36.408.8.408 1.32 0 .744-.28 1.328-.84 1.752-.56.416-1.336.624-2.328.624s-1.768-.208-2.328-.624c-.56-.424-.84-1.008-.84-1.752 0-.52.136-.96.408-1.32.272-.368.656-.616 1.152-.744-.424-.16-.756-.408-.996-.744-.24-.344-.36-.744-.36-1.2 0-.704.264-1.26.792-1.668s1.252-.612 2.172-.612 1.644.204 2.172.612.792.964.792 1.668c0 .464-.12.868-.36 1.212s-.568.588-.984.732zm-1.62-3.012c-1 0-1.5.408-1.5 1.224 0 .408.124.72.372.936.256.208.632.312 1.128.312s.868-.104 1.116-.312c.256-.216.384-.528.384-.936 0-.816-.5-1.224-1.5-1.224zm0 6.24c1.144 0 1.716-.428 1.716-1.284s-.572-1.284-1.716-1.284-1.716.428-1.716 1.284.572 1.284 1.716 1.284zm9.571-.132c.48 0 .72.204.72.612 0 .424-.24.636-.72.636h-4.56c-.208 0-.372-.06-.492-.18a.66.66 0 0 1-.18-.468c0-.24.092-.456.276-.648l2.736-2.94c.336-.368.58-.704.732-1.008.16-.312.24-.62.24-.924 0-.376-.108-.664-.324-.864s-.524-.3-.924-.3c-.328 0-.648.064-.96.192a4.6 4.6 0 0 0-.924.504c-.08.056-.16.104-.24.144a.64.64 0 0 1-.24.048c-.136 0-.256-.064-.36-.192a.74.74 0 0 1-.144-.456.75.75 0 0 1 .06-.312c.048-.088.12-.172.216-.252.352-.28.764-.5 1.236-.66a4.2 4.2 0 0 1 1.416-.252c.824 0 1.48.208 1.968.624.496.416.744.976.744 1.68a3.14 3.14 0 0 1-.312 1.38c-.208.424-.56.9-1.056 1.428l-2.076 2.208h3.168zm7.531-1.608c.24 0 .42.052.54.156s.18.252.18.444c0 .4-.24.6-.72.6h-.612v.948c0 .248-.072.44-.216.576a.73.73 0 0 1-.54.204c-.224 0-.408-.068-.552-.204-.136-.136-.204-.328-.204-.576v-.948h-3.144c-.216 0-.384-.06-.504-.18a.66.66 0 0 1-.18-.468c0-.192.064-.376.192-.552l3.708-5.328a.76.76 0 0 1 .3-.252.78.78 0 0 1 .372-.096c.208 0 .388.068.54.204s.228.328.228.576v4.896h.612zm-4.356 0h2.232v-3.228l-2.232 3.228zm9.295-2.556c.528 0 .992.116 1.392.348a2.35 2.35 0 0 1 .948.948c.224.408.336.876.336 1.404 0 .552-.128 1.04-.384 1.464-.248.424-.604.756-1.068.996-.456.232-.984.348-1.584.348a4.6 4.6 0 0 1-1.464-.24c-.472-.168-.876-.392-1.212-.672-.184-.16-.276-.348-.276-.564 0-.176.048-.324.144-.444.104-.128.224-.192.36-.192.08 0 .156.016.228.048.072.024.156.068.252.132.32.224.632.396.936.516s.628.18.972.18c.528 0 .932-.132 1.212-.396s.42-.64.42-1.128c0-.472-.144-.844-.432-1.116-.28-.28-.668-.42-1.164-.42-.312 0-.592.044-.84.132-.24.088-.488.236-.744.444a.82.82 0 0 1-.468.156c-.16 0-.296-.048-.408-.144a.48.48 0 0 1-.168-.384v-3.744c0-.224.064-.4.192-.528s.308-.192.54-.192h3.996c.48 0 .72.2.72.6s-.24.6-.72.6h-3.216v2.28c.408-.288.908-.432 1.5-.432zm8.048 1.068c.504.128.888.372 1.152.732.272.352.408.792.408 1.32 0 .728-.268 1.308-.804 1.74s-1.26.648-2.172.648a4.71 4.71 0 0 1-1.5-.24 3.61 3.61 0 0 1-1.224-.672c-.184-.16-.276-.348-.276-.564 0-.176.048-.324.144-.444.104-.128.224-.192.36-.192.08 0 .152.016.216.048.064.024.152.068.264.132.336.224.656.396.96.516a2.69 2.69 0 0 0 .996.18c.528 0 .92-.104 1.176-.312.256-.216.384-.54.384-.972 0-.424-.136-.736-.408-.936-.264-.208-.676-.312-1.236-.312h-.684c-.184 0-.328-.06-.432-.18a.7.7 0 0 1-.144-.432.67.67 0 0 1 .144-.432c.104-.12.248-.18.432-.18h.48c1.096 0 1.644-.412 1.644-1.236 0-.384-.116-.68-.348-.888s-.552-.312-.96-.312c-.584 0-1.208.232-1.872.696l-.264.144a.61.61 0 0 1-.216.036c-.136 0-.256-.06-.36-.18a.74.74 0 0 1-.144-.456c0-.12.02-.22.06-.3.048-.088.12-.176.216-.264.336-.28.736-.5 1.2-.66.472-.168.952-.252 1.44-.252.832 0 1.492.204 1.98.612.496.408.744.952.744 1.632a2.19 2.19 0 0 1-.372 1.224 2 2 0 0 1-.984.756zm6.415-1.08c.504 0 .952.116 1.344.348.392.224.696.544.912.96.224.408.336.876.336 1.404 0 .544-.124 1.032-.372 1.464-.24.424-.576.756-1.008.996-.424.24-.908.36-1.452.36-1.072 0-1.9-.36-2.484-1.08-.576-.728-.864-1.764-.864-3.108 0-.92.136-1.716.408-2.388.272-.68.66-1.2 1.164-1.56.512-.36 1.112-.54 1.8-.54.456 0 .912.084 1.368.252a3.49 3.49 0 0 1 1.176.66c.104.088.176.176.216.264.048.08.072.18.072.3a.7.7 0 0 1-.156.456c-.096.12-.212.18-.348.18-.08 0-.156-.012-.228-.036-.072-.032-.16-.08-.264-.144-.664-.464-1.256-.696-1.776-.696-.584 0-1.044.272-1.38.816-.336.536-.512 1.292-.528 2.268.184-.36.46-.644.828-.852.368-.216.78-.324 1.236-.324zm-.324 4.308c.44 0 .792-.14 1.056-.42.264-.288.396-.664.396-1.128s-.132-.836-.396-1.116-.616-.42-1.056-.42c-.448 0-.812.144-1.092.432-.272.28-.408.648-.408 1.104 0 .464.136.84.408 1.128.28.28.644.42 1.092.42zm8.299-3.228c.504.128.888.372 1.152.732.272.352.408.792.408 1.32 0 .728-.268 1.308-.804 1.74s-1.26.648-2.172.648a4.71 4.71 0 0 1-1.5-.24 3.61 3.61 0 0 1-1.224-.672c-.184-.16-.276-.348-.276-.564 0-.176.048-.324.144-.444.104-.128.224-.192.36-.192.08 0 .152.016.216.048.064.024.152.068.264.132.336.224.656.396.96.516a2.69 2.69 0 0 0 .996.18c.528 0 .92-.104 1.176-.312.256-.216.384-.54.384-.972 0-.424-.136-.736-.408-.936-.264-.208-.676-.312-1.236-.312h-.684c-.184 0-.328-.06-.432-.18a.7.7 0 0 1-.144-.432.67.67 0 0 1 .144-.432c.104-.12.248-.18.432-.18h.48c1.096 0 1.644-.412 1.644-1.236 0-.384-.116-.68-.348-.888s-.552-.312-.96-.312c-.584 0-1.208.232-1.872.696l-.264.144a.61.61 0 0 1-.216.036c-.136 0-.256-.06-.36-.18a.74.74 0 0 1-.144-.456c0-.12.02-.22.06-.3.048-.088.12-.176.216-.264.336-.28.736-.5 1.2-.66.472-.168.952-.252 1.44-.252.832 0 1.492.204 1.98.612.496.408.744.952.744 1.632a2.19 2.19 0 0 1-.372 1.224 2 2 0 0 1-.984.756zm5.624-4.224c1.072 0 1.896.364 2.472 1.092.584.72.876 1.752.876 3.096 0 .92-.136 1.72-.408 2.4-.272.672-.664 1.188-1.176 1.548-.504.36-1.1.54-1.788.54-.456 0-.916-.08-1.38-.24-.456-.168-.844-.392-1.164-.672-.104-.088-.18-.172-.228-.252a.75.75 0 0 1-.06-.312c0-.176.048-.324.144-.444.104-.128.224-.192.36-.192.08 0 .156.016.228.048.072.024.16.068.264.132.664.464 1.256.696 1.776.696.584 0 1.044-.268 1.38-.804.336-.544.512-1.304.528-2.28-.184.36-.46.648-.828.864-.368.208-.78.312-1.236.312a2.66 2.66 0 0 1-1.344-.336 2.48 2.48 0 0 1-.924-.96c-.216-.416-.324-.888-.324-1.416 0-.544.12-1.028.36-1.452a2.65 2.65 0 0 1 1.008-1.008c.432-.24.92-.36 1.464-.36zm.084 4.308c.448 0 .808-.14 1.08-.42.28-.288.42-.66.42-1.116 0-.464-.14-.836-.42-1.116-.272-.288-.632-.432-1.08-.432-.44 0-.792.144-1.056.432-.264.28-.396.652-.396 1.116s.132.836.396 1.116.616.42 1.056.42zm9.007-.084c.496.136.876.384 1.14.744.272.36.408.8.408 1.32 0 .744-.28 1.328-.84 1.752-.56.416-1.336.624-2.328.624s-1.768-.208-2.328-.624c-.56-.424-.84-1.008-.84-1.752 0-.52.136-.96.408-1.32.272-.368.656-.616 1.152-.744-.424-.16-.756-.408-.996-.744-.24-.344-.36-.744-.36-1.2 0-.704.264-1.26.792-1.668s1.252-.612 2.172-.612 1.644.204 2.172.612.792.964.792 1.668c0 .464-.12.868-.36 1.212s-.568.588-.984.732zm-1.62-3.012c-1 0-1.5.408-1.5 1.224 0 .408.124.72.372.936.256.208.632.312 1.128.312s.868-.104 1.116-.312c.256-.216.384-.528.384-.936 0-.816-.5-1.224-1.5-1.224zm0 6.24c1.144 0 1.716-.428 1.716-1.284s-.572-1.284-1.716-1.284-1.716.428-1.716 1.284.572 1.284 1.716 1.284zm8.815-3.228c.496.136.876.384 1.14.744.272.36.408.8.408 1.32 0 .744-.28 1.328-.84 1.752-.56.416-1.336.624-2.328.624s-1.768-.208-2.328-.624c-.56-.424-.84-1.008-.84-1.752 0-.52.136-.96.408-1.32.272-.368.656-.616 1.152-.744-.424-.16-.756-.408-.996-.744-.24-.344-.36-.744-.36-1.2 0-.704.264-1.26.792-1.668s1.252-.612 2.172-.612 1.644.204 2.172.612.792.964.792 1.668c0 .464-.12.868-.36 1.212s-.568.588-.984.732zm-1.62-3.012c-1 0-1.5.408-1.5 1.224 0 .408.124.72.372.936.256.208.632.312 1.128.312s.868-.104 1.116-.312c.256-.216.384-.528.384-.936 0-.816-.5-1.224-1.5-1.224zm0 6.24c1.144 0 1.716-.428 1.716-1.284s-.572-1.284-1.716-1.284-1.716.428-1.716 1.284.572 1.284 1.716 1.284zm9.608-.132c.48 0 .72.204.72.612 0 .424-.24.636-.72.636h-4.056c-.488 0-.732-.212-.732-.636 0-.408.244-.612.732-.612h1.248v-5.472l-1.152.708a.62.62 0 0 1-.3.096c-.168 0-.312-.072-.432-.216-.112-.144-.168-.304-.168-.48a.6.6 0 0 1 .312-.54l1.86-1.152c.24-.144.468-.216.684-.216a.73.73 0 0 1 .54.204c.136.136.204.324.204.564v6.504h1.26zm7.483-1.608c.24 0 .42.052.54.156s.18.252.18.444c0 .4-.24.6-.72.6h-.612v.948c0 .248-.072.44-.216.576a.73.73 0 0 1-.54.204c-.224 0-.408-.068-.552-.204-.136-.136-.204-.328-.204-.576v-.948h-3.144c-.216 0-.384-.06-.504-.18a.66.66 0 0 1-.18-.468c0-.192.064-.376.192-.552l3.708-5.328a.76.76 0 0 1 .3-.252.78.78 0 0 1 .372-.096c.208 0 .388.068.54.204s.228.328.228.576v4.896h.612zm-4.356 0h2.232v-3.228l-2.232 3.228zm11.227 1.608c.48 0 .72.204.72.612 0 .424-.24.636-.72.636h-4.56c-.208 0-.372-.06-.492-.18a.66.66 0 0 1-.18-.468c0-.24.092-.456.276-.648l2.736-2.94c.336-.368.58-.704.732-1.008.16-.312.24-.62.24-.924 0-.376-.108-.664-.324-.864s-.524-.3-.924-.3c-.328 0-.648.064-.96.192a4.6 4.6 0 0 0-.924.504c-.08.056-.16.104-.24.144a.64.64 0 0 1-.24.048c-.136 0-.256-.064-.36-.192a.74.74 0 0 1-.144-.456.75.75 0 0 1 .06-.312c.048-.088.12-.172.216-.252.352-.28.764-.5 1.236-.66a4.2 4.2 0 0 1 1.416-.252c.824 0 1.48.208 1.968.624.496.416.744.976.744 1.68a3.14 3.14 0 0 1-.312 1.38c-.208.424-.56.9-1.056 1.428l-2.076 2.208h3.168zm6.127-3.096c.504.128.888.372 1.152.732.272.352.408.792.408 1.32 0 .728-.268 1.308-.804 1.74s-1.26.648-2.172.648a4.71 4.71 0 0 1-1.5-.24 3.61 3.61 0 0 1-1.224-.672c-.184-.16-.276-.348-.276-.564 0-.176.048-.324.144-.444.104-.128.224-.192.36-.192.08 0 .152.016.216.048.064.024.152.068.264.132.336.224.656.396.96.516a2.69 2.69 0 0 0 .996.18c.528 0 .92-.104 1.176-.312.256-.216.384-.54.384-.972 0-.424-.136-.736-.408-.936-.264-.208-.676-.312-1.236-.312h-.684c-.184 0-.328-.06-.432-.18a.7.7 0 0 1-.144-.432.67.67 0 0 1 .144-.432c.104-.12.248-.18.432-.18h.48c1.096 0 1.644-.412 1.644-1.236 0-.384-.116-.68-.348-.888s-.552-.312-.96-.312c-.584 0-1.208.232-1.872.696l-.264.144a.61.61 0 0 1-.216.036c-.136 0-.256-.06-.36-.18a.74.74 0 0 1-.144-.456c0-.12.02-.22.06-.3.048-.088.12-.176.216-.264.336-.28.736-.5 1.2-.66.472-.168.952-.252 1.44-.252.832 0 1.492.204 1.98.612.496.408.744.952.744 1.632a2.19 2.19 0 0 1-.372 1.224 2 2 0 0 1-.984.756zm6.344-1.068c.528 0 .992.116 1.392.348a2.35 2.35 0 0 1 .948.948c.224.408.336.876.336 1.404 0 .552-.128 1.04-.384 1.464-.248.424-.604.756-1.068.996-.456.232-.984.348-1.584.348a4.6 4.6 0 0 1-1.464-.24c-.472-.168-.876-.392-1.212-.672-.184-.16-.276-.348-.276-.564 0-.176.048-.324.144-.444.104-.128.224-.192.36-.192.08 0 .156.016.228.048.072.024.156.068.252.132.32.224.632.396.936.516s.628.18.972.18c.528 0 .932-.132 1.212-.396s.42-.64.42-1.128c0-.472-.144-.844-.432-1.116-.28-.28-.668-.42-1.164-.42-.312 0-.592.044-.84.132-.24.088-.488.236-.744.444a.82.82 0 0 1-.468.156c-.16 0-.296-.048-.408-.144a.48.48 0 0 1-.168-.384v-3.744c0-.224.064-.4.192-.528s.308-.192.54-.192h3.996c.48 0 .72.2.72.6s-.24.6-.72.6h-3.216v2.28c.408-.288.908-.432 1.5-.432zm7.267-.012c.504 0 .952.116 1.344.348.392.224.696.544.912.96.224.408.336.876.336 1.404 0 .544-.124 1.032-.372 1.464-.24.424-.576.756-1.008.996-.424.24-.908.36-1.452.36-1.072 0-1.9-.36-2.484-1.08-.576-.728-.864-1.764-.864-3.108 0-.92.136-1.716.408-2.388.272-.68.66-1.2 1.164-1.56.512-.36 1.112-.54 1.8-.54.456 0 .912.084 1.368.252a3.49 3.49 0 0 1 1.176.66c.104.088.176.176.216.264.048.08.072.18.072.3a.7.7 0 0 1-.156.456c-.096.12-.212.18-.348.18-.08 0-.156-.012-.228-.036-.072-.032-.16-.08-.264-.144-.664-.464-1.256-.696-1.776-.696-.584 0-1.044.272-1.38.816-.336.536-.512 1.292-.528 2.268.184-.36.46-.644.828-.852.368-.216.78-.324 1.236-.324zm-.324 4.308c.44 0 .792-.14 1.056-.42.264-.288.396-.664.396-1.128s-.132-.836-.396-1.116-.616-.42-1.056-.42c-.448 0-.812.144-1.092.432-.272.28-.408.648-.408 1.104 0 .464.136.84.408 1.128.28.28.644.42 1.092.42zm9.703-1.74c.24 0 .42.052.54.156s.18.252.18.444c0 .4-.24.6-.72.6h-.612v.948c0 .248-.072.44-.216.576a.73.73 0 0 1-.54.204c-.224 0-.408-.068-.552-.204-.136-.136-.204-.328-.204-.576v-.948h-3.144c-.216 0-.384-.06-.504-.18a.66.66 0 0 1-.18-.468c0-.192.064-.376.192-.552l3.708-5.328a.76.76 0 0 1 .3-.252.78.78 0 0 1 .372-.096c.208 0 .388.068.54.204s.228.328.228.576v4.896h.612zm-4.356 0h2.232v-3.228l-2.232 3.228zm11.551 0c.24 0 .42.052.54.156s.18.252.18.444c0 .4-.24.6-.72.6h-.612v.948c0 .248-.072.44-.216.576a.73.73 0 0 1-.54.204c-.224 0-.408-.068-.552-.204-.136-.136-.204-.328-.204-.576v-.948h-3.144c-.216 0-.384-.06-.504-.18a.66.66 0 0 1-.18-.468c0-.192.064-.376.192-.552l3.708-5.328a.76.76 0 0 1 .3-.252.78.78 0 0 1 .372-.096c.208 0 .388.068.54.204s.228.328.228.576v4.896h.612zm-4.356 0h2.232v-3.228l-2.232 3.228zM309 534h-6v78h6zm-28 0h-6v78h6zm-8 0h-1v78h1zm28 0h-2v78h2zm-16 0h-2v78h2zm12 0h-4v78h4zm-6 0h-4v78h4zm-60 0h6v78h-6zm28 0h6v78h-6zm8 0h1v78h-1zm-28 0h2v78h-2zm16 0h2v78h-2zm-12 0h4v78h-4zm6 0h4v78h-4zm-59 0h6v78h-6zm28 0h6v78h-6zm8 0h1v78h-1zm-28 0h2v78h-2zm16 0h2v78h-2zm-12 0h4v78h-4zm6 0h4v78h-4zm-22 0h-6v78h6zm-28 0h-6v78h6zm-8 0h-1v78h1zm28 0h-2v78h2zm-16 0h-2v78h2zm12 0h-4v78h4zm-6 0h-4v78h4zm-60 0h6v78h-6zm28 0h6v78h-6zm8 0h1v78h-1zm-28 0h2v78h-2zm16 0h2v78h-2zm-12 0h4v78h-4zm6 0h4v78h-4zm-59 0h6v78h-6zm28 0h6v78h-6zm8 0h1v78h-1zm-28 0h2v78h-2zm16 0h2v78h-2zm-12 0h4v78h-4zm6 0h4v78h-4z" class="B"/><path d="M24 167a8 8 0 0 1 8-8h311a8 8 0 0 1 8 8v343H24V167z" fill="#fff"/><path d="M59.264 465.04c.053.128.08.235.08.32 0 .203-.085.373-.256.512-.16.139-.341.208-.544.208a.78.78 0 0 1-.4-.112c-.117-.085-.208-.203-.272-.352l-1.056-2.4H50.96l-1.056 2.4c-.064.149-.16.267-.288.352a.78.78 0 0 1-.4.112c-.213 0-.405-.069-.576-.208a.65.65 0 0 1-.24-.512c0-.085.027-.192.08-.32l4.512-9.872c.075-.171.192-.304.352-.4.171-.096.347-.144.528-.144a.98.98 0 0 1 .512.144c.171.096.293.229.368.4l4.512 9.872zm-7.712-3.136h4.688l-2.352-5.296-2.336 5.296zM64.15 458c1.035 0 1.803.261 2.304.784.512.523.768 1.317.768 2.384v4.144c0 .245-.069.437-.208.576-.139.128-.331.192-.576.192-.235 0-.421-.069-.56-.208s-.208-.325-.208-.56v-.592a2.28 2.28 0 0 1-.912 1.04c-.395.235-.859.352-1.392.352-.512 0-.981-.101-1.408-.304-.416-.213-.747-.501-.992-.864s-.368-.773-.368-1.232c-.011-.576.133-1.024.432-1.344.299-.331.784-.565 1.456-.704.672-.149 1.605-.224 2.8-.224h.368v-.464c0-.597-.123-1.029-.368-1.296s-.64-.4-1.184-.4a3.77 3.77 0 0 0-1.056.144c-.331.096-.693.235-1.088.416-.288.16-.491.24-.608.24a.52.52 0 0 1-.4-.176c-.096-.117-.144-.267-.144-.448 0-.16.043-.299.128-.416a1.47 1.47 0 0 1 .448-.368c.373-.203.811-.363 1.312-.48.501-.128.987-.192 1.456-.192zm-.496 6.912c.587 0 1.067-.197 1.44-.592.373-.405.56-.923.56-1.552v-.416h-.288c-.832 0-1.472.037-1.92.112s-.768.203-.96.384c-.192.171-.288.421-.288.752 0 .384.139.699.416.944s.624.368 1.04.368zm11.33-6.4c.064-.16.155-.277.272-.352a.78.78 0 0 1 .4-.112.75.75 0 0 1 .528.208c.16.139.24.304.24.496a.74.74 0 0 1-.064.304l-4.448 9.44c-.064.149-.16.261-.288.336a.64.64 0 0 1-.384.128c-.192 0-.368-.064-.528-.192-.149-.128-.224-.288-.224-.48 0-.085.027-.192.08-.32l1.104-2.352-3.088-6.56c-.043-.085-.064-.181-.064-.288 0-.203.085-.373.256-.512s.363-.208.576-.208c.32 0 .549.149.688.448l2.48 5.504 2.464-5.488zm8.809-.48c.245 0 .437.069.576.208.149.139.224.331.224.576v6.512c0 .224-.075.405-.224.544s-.347.208-.592.208a.77.77 0 0 1-.544-.192c-.139-.139-.208-.32-.208-.544v-.608c-.245.448-.587.789-1.024 1.024-.427.235-.907.352-1.44.352-1.899 0-2.848-1.045-2.848-3.136v-4.16c0-.245.069-.437.208-.576.149-.139.352-.208.608-.208.245 0 .437.069.576.208.149.139.224.331.224.576v4.144c0 .629.128 1.093.384 1.392s.651.448 1.184.448c.629 0 1.131-.203 1.504-.608.384-.405.576-.944.576-1.616v-3.76c0-.235.075-.421.224-.56.149-.149.347-.224.592-.224zm5.781 8.08c-1.088 0-1.979-.224-2.672-.672-.192-.117-.331-.24-.416-.368a.84.84 0 0 1-.112-.432c0-.171.048-.315.144-.432s.219-.176.368-.176c.139 0 .357.085.656.256a6.94 6.94 0 0 0 .928.416c.309.107.693.16 1.152.16.512 0 .912-.091 1.2-.272s.432-.437.432-.768c0-.213-.059-.384-.176-.512-.107-.128-.299-.24-.576-.336-.277-.107-.688-.219-1.232-.336-.939-.203-1.616-.475-2.032-.816-.405-.352-.608-.827-.608-1.424 0-.459.133-.869.4-1.232.267-.373.635-.661 1.104-.864s1.003-.304 1.6-.304a4.48 4.48 0 0 1 1.248.176c.405.107.763.267 1.072.48.352.235.528.507.528.816 0 .171-.053.315-.16.432a.44.44 0 0 1-.352.176.7.7 0 0 1-.288-.064 3.87 3.87 0 0 1-.384-.208c-.288-.171-.56-.304-.816-.4-.245-.096-.555-.144-.928-.144-.448 0-.811.096-1.088.288-.267.192-.4.453-.4.784a.81.81 0 0 0 .368.704c.256.16.731.315 1.424.464.715.149 1.275.32 1.68.512s.693.432.864.72c.181.277.272.635.272 1.072 0 .693-.293 1.253-.88 1.68-.576.416-1.349.624-2.32.624zM98.797 458c1.856 0 2.784 1.051 2.784 3.152v4.16c0 .235-.075.421-.224.56s-.347.208-.592.208-.443-.069-.592-.208c-.139-.139-.208-.325-.208-.56v-4.144c0-.64-.133-1.109-.4-1.408-.256-.299-.661-.448-1.216-.448-.651 0-1.173.203-1.568.608s-.592.949-.592 1.632v3.76c0 .235-.075.421-.224.56-.139.139-.331.208-.576.208s-.443-.069-.592-.208-.224-.325-.224-.56v-9.904c0-.235.075-.421.224-.56.16-.139.363-.208.608-.208.235 0 .421.069.56.208.149.128.224.304.224.528v4c.267-.448.624-.789 1.072-1.024s.96-.352 1.536-.352zm17.886-3.36c.234 0 .421.08.56.24.149.149.224.347.224.592v9.776c0 .245-.075.448-.224.608-.15.149-.342.224-.576.224-.278 0-.491-.107-.64-.32l-6.272-8.272v7.76c0 .245-.075.448-.224.608-.139.149-.326.224-.56.224s-.422-.075-.56-.224-.208-.352-.208-.608v-9.776c0-.245.074-.443.224-.592a.75.75 0 0 1 .576-.24c.277 0 .49.107.64.32l6.272 8.288v-7.776c0-.245.069-.443.208-.592.138-.16.325-.24.56-.24zm6.498 3.36c1.035 0 1.803.261 2.304.784.512.523.768 1.317.768 2.384v4.144c0 .245-.069.437-.208.576-.138.128-.33.192-.576.192-.234 0-.421-.069-.56-.208s-.208-.325-.208-.56v-.592c-.202.448-.506.795-.912 1.04-.394.235-.858.352-1.392.352-.512 0-.981-.101-1.408-.304-.416-.213-.746-.501-.992-.864a2.15 2.15 0 0 1-.368-1.232c-.01-.576.134-1.024.432-1.344.299-.331.784-.565 1.456-.704.672-.149 1.606-.224 2.8-.224h.368v-.464c0-.597-.122-1.029-.368-1.296s-.64-.4-1.184-.4c-.373 0-.725.048-1.056.144s-.693.235-1.088.416c-.288.16-.49.24-.608.24a.52.52 0 0 1-.4-.176c-.096-.117-.144-.267-.144-.448a.69.69 0 0 1 .128-.416c.096-.128.246-.251.448-.368.374-.203.811-.363 1.312-.48.502-.128.987-.192 1.456-.192zm-.496 6.912c.587 0 1.067-.197 1.44-.592.374-.405.56-.923.56-1.552v-.416h-.288c-.832 0-1.472.037-1.92.112s-.768.203-.96.384c-.192.171-.288.421-.288.752 0 .384.139.699.416.944s.624.368 1.04.368zm6.595 1.168c-.235 0-.432-.064-.592-.192-.15-.128-.224-.32-.224-.576v-6.496c0-.256.074-.448.224-.576a.87.87 0 0 1 .592-.208c.234 0 .426.069.576.208.149.128.224.32.224.576v6.496c0 .256-.075.448-.224.576s-.342.192-.576.192zm0-9.616c-.31 0-.555-.085-.736-.256s-.272-.395-.272-.672.09-.496.272-.656c.181-.171.426-.256.736-.256.298 0 .538.085.72.256.192.16.288.379.288.656s-.091.501-.272.672-.427.256-.736.256zm9.619 8.272a.74.74 0 0 1 .288.592.75.75 0 0 1-.208.528c-.139.149-.304.224-.496.224-.203 0-.384-.075-.544-.224l-3.984-3.52v2.96c0 .256-.075.453-.224.592-.15.128-.342.192-.576.192s-.432-.064-.592-.192c-.15-.139-.224-.336-.224-.592v-9.872c0-.256.074-.448.224-.576a.87.87 0 0 1 .592-.208c.234 0 .426.069.576.208.149.128.224.32.224.576v6.272l3.648-3.408c.181-.16.357-.24.528-.24.202 0 .378.075.528.224s.224.325.224.528-.091.389-.272.56l-2.848 2.608 3.136 2.768z" class="B"/><path d="M49.596 439.06a.6.6 0 0 1-.444-.168c-.112-.112-.168-.264-.168-.456v-7.296c0-.184.052-.328.156-.432.112-.112.264-.168.456-.168h2.892c.896 0 1.592.22 2.088.66s.744 1.064.744 1.872c0 .8-.248 1.424-.744 1.872s-1.192.672-2.088.672H50.22v2.82c0 .192-.056.344-.168.456-.104.112-.256.168-.456.168zm2.76-4.44c1.184 0 1.776-.516 1.776-1.548 0-1.024-.592-1.536-1.776-1.536H50.22v3.084h2.136zm6.631-1.62c.776 0 1.352.196 1.728.588.384.392.576.988.576 1.788v3.108c0 .184-.052.328-.156.432-.104.096-.248.144-.432.144-.176 0-.316-.052-.42-.156s-.156-.244-.156-.42v-.444c-.152.336-.38.596-.684.78-.296.176-.644.264-1.044.264a2.43 2.43 0 0 1-1.056-.228c-.312-.16-.56-.376-.744-.648a1.61 1.61 0 0 1-.276-.924c-.008-.432.1-.768.324-1.008.224-.248.588-.424 1.092-.528.504-.112 1.204-.168 2.1-.168h.276v-.348c0-.448-.092-.772-.276-.972s-.48-.3-.888-.3c-.28 0-.544.036-.792.108s-.52.176-.816.312c-.216.12-.368.18-.456.18a.39.39 0 0 1-.3-.132c-.072-.088-.108-.2-.108-.336 0-.12.032-.224.096-.312.072-.096.184-.188.336-.276a3.94 3.94 0 0 1 .984-.36 4.41 4.41 0 0 1 1.092-.144zm-.372 5.184c.44 0 .8-.148 1.08-.444.28-.304.42-.692.42-1.164v-.312H59.9c-.624 0-1.104.028-1.44.084s-.576.152-.72.288c-.144.128-.216.316-.216.564a.9.9 0 0 0 .312.708c.208.184.468.276.78.276zm6.374.9c-.816 0-1.484-.168-2.004-.504-.144-.088-.248-.18-.312-.276a.63.63 0 0 1-.084-.324c0-.128.036-.236.108-.324a.34.34 0 0 1 .276-.132c.104 0 .268.064.492.192.24.128.472.232.696.312.232.08.52.12.864.12.384 0 .684-.068.9-.204s.324-.328.324-.576c0-.16-.044-.288-.132-.384-.08-.096-.224-.18-.432-.252-.208-.08-.516-.164-.924-.252-.704-.152-1.212-.356-1.524-.612-.304-.264-.456-.62-.456-1.068a1.52 1.52 0 0 1 .3-.924 1.93 1.93 0 0 1 .828-.648 3 3 0 0 1 1.2-.228 3.35 3.35 0 0 1 .936.132c.304.08.572.2.804.36.264.176.396.38.396.612 0 .128-.04.236-.12.324a.33.33 0 0 1-.264.132.53.53 0 0 1-.216-.048 2.85 2.85 0 0 1-.288-.156c-.216-.128-.42-.228-.612-.3-.184-.072-.416-.108-.696-.108-.336 0-.608.072-.816.216-.2.144-.3.34-.3.588a.61.61 0 0 0 .276.528c.192.12.548.236 1.068.348.536.112.956.24 1.26.384s.52.324.648.54c.136.208.204.476.204.804 0 .52-.22.94-.66 1.26-.432.312-1.012.468-1.74.468zm5.789 0c-.816 0-1.484-.168-2.004-.504-.144-.088-.248-.18-.312-.276a.63.63 0 0 1-.084-.324c0-.128.036-.236.108-.324a.34.34 0 0 1 .276-.132c.104 0 .268.064.492.192.24.128.472.232.696.312.232.08.52.12.864.12.384 0 .684-.068.9-.204s.324-.328.324-.576c0-.16-.044-.288-.132-.384-.08-.096-.224-.18-.432-.252-.208-.08-.516-.164-.924-.252-.704-.152-1.212-.356-1.524-.612-.304-.264-.456-.62-.456-1.068a1.52 1.52 0 0 1 .3-.924 1.93 1.93 0 0 1 .828-.648 3 3 0 0 1 1.2-.228 3.35 3.35 0 0 1 .936.132c.304.08.572.2.804.36.264.176.396.38.396.612 0 .128-.04.236-.12.324a.33.33 0 0 1-.264.132.53.53 0 0 1-.216-.048 2.85 2.85 0 0 1-.288-.156c-.216-.128-.42-.228-.612-.3-.184-.072-.416-.108-.696-.108-.336 0-.608.072-.816.216-.2.144-.3.34-.3.588a.61.61 0 0 0 .276.528c.192.12.548.236 1.068.348.536.112.956.24 1.26.384s.52.324.648.54c.136.208.204.476.204.804 0 .52-.22.94-.66 1.26-.432.312-1.012.468-1.74.468zm8.333-1.56a.34.34 0 0 1 .276.132c.072.088.108.2.108.336 0 .232-.144.428-.432.588-.28.16-.588.284-.924.372-.328.088-.644.132-.948.132-.928 0-1.66-.268-2.196-.804-.536-.544-.804-1.284-.804-2.22 0-.6.116-1.132.348-1.596.24-.464.572-.824.996-1.08.432-.256.92-.384 1.464-.384.784 0 1.404.252 1.86.756s.684 1.184.684 2.04c0 .32-.144.48-.432.48h-3.708c.08 1.24.676 1.86 1.788 1.86.296 0 .552-.04.768-.12s.444-.184.684-.312c.024-.016.088-.048.192-.096.112-.056.204-.084.276-.084zm-2.088-3.636c-.464 0-.836.148-1.116.444s-.448.712-.504 1.248H78.5c-.024-.544-.164-.96-.42-1.248-.248-.296-.6-.444-1.056-.444zm7.012-.888c1.4 0 2.1.788 2.1 2.364v3.12a.56.56 0 0 1-.168.432c-.104.096-.252.144-.444.144-.184 0-.332-.052-.444-.156-.104-.104-.156-.244-.156-.42v-3.06c0-.496-.1-.86-.3-1.092-.192-.232-.496-.348-.912-.348-.488 0-.88.152-1.176.456s-.444.712-.444 1.224v2.82c0 .176-.056.316-.168.42-.104.104-.248.156-.432.156s-.332-.052-.444-.156-.168-.244-.168-.42V433.6a.53.53 0 0 1 .168-.408c.12-.112.268-.168.444-.168s.316.052.42.156.156.24.156.408v.492c.192-.352.46-.62.804-.804s.732-.276 1.164-.276zm8.606.024a.56.56 0 0 1 .432.168c.112.104.168.244.168.42v4.92c0 .896-.24 1.572-.72 2.028-.472.456-1.172.684-2.1.684-.864 0-1.584-.164-2.16-.492-.296-.168-.444-.368-.444-.6 0-.136.036-.248.108-.336.08-.088.176-.132.288-.132.104 0 .268.06.492.18a5.48 5.48 0 0 0 .804.312c.248.08.544.12.888.12 1.104 0 1.656-.556 1.656-1.668v-.924c-.168.352-.424.628-.768.828-.344.192-.744.288-1.2.288-.512 0-.968-.12-1.368-.36a2.46 2.46 0 0 1-.936-1.02c-.216-.44-.324-.948-.324-1.524s.112-1.084.336-1.524.532-.78.924-1.02c.4-.248.856-.372 1.368-.372.448 0 .84.096 1.176.288.344.192.604.464.78.816v-.504c0-.176.052-.316.156-.42.112-.104.26-.156.444-.156zm-2.268 4.836c.52 0 .928-.172 1.224-.516s.444-.82.444-1.428c0-.6-.148-1.072-.444-1.416-.288-.352-.696-.528-1.224-.528s-.944.172-1.248.516c-.296.344-.444.82-.444 1.428s.152 1.084.456 1.428.716.516 1.236.516zm9.141-.336a.34.34 0 0 1 .276.132c.072.088.108.2.108.336 0 .232-.144.428-.432.588-.28.16-.588.284-.924.372-.328.088-.644.132-.948.132-.928 0-1.66-.268-2.196-.804-.536-.544-.804-1.284-.804-2.22 0-.6.116-1.132.348-1.596.24-.464.572-.824.996-1.08.432-.256.92-.384 1.464-.384.784 0 1.404.252 1.86.756s.684 1.184.684 2.04c0 .32-.144.48-.432.48h-3.708c.08 1.24.676 1.86 1.788 1.86.296 0 .552-.04.768-.12s.444-.184.684-.312c.024-.016.088-.048.192-.096.112-.056.204-.084.276-.084zm-2.088-3.636c-.464 0-.836.148-1.116.444s-.448.712-.504 1.248h3.096c-.024-.544-.164-.96-.42-1.248-.248-.296-.6-.444-1.056-.444zm6.927-.864c.384-.024.576.14.576.492 0 .176-.044.308-.132.396s-.24.14-.456.156l-.36.036c-.504.048-.88.224-1.128.528-.24.304-.36.672-.36 1.104v2.748c0 .192-.056.336-.168.432a.64.64 0 0 1-.432.144c-.176 0-.324-.048-.444-.144-.112-.096-.168-.24-.168-.432V433.6c0-.184.056-.324.168-.42.12-.104.268-.156.444-.156.16 0 .292.052.396.156.112.096.168.232.168.408v.576c.16-.352.392-.62.696-.804s.648-.292 1.032-.324l.168-.012z" class="C"/><path d="M287.936 381.64c.256 0 .448.059.576.176s.192.283.192.496c0 .459-.256.688-.768.688h-5.344c-.523 0-.784-.229-.784-.688 0-.213.064-.379.192-.496.139-.117.336-.176.592-.176h1.84v-7.984l-1.648 1.04c-.107.064-.213.096-.32.096-.181 0-.341-.08-.48-.24-.128-.16-.192-.341-.192-.544 0-.245.107-.437.32-.576l2.464-1.568c.245-.149.48-.224.704-.224a.78.78 0 0 1 .576.224c.149.149.224.352.224.608v9.168h1.856zm9.706-9.92c.234 0 .41.064.528.192a.67.67 0 0 1 .192.496c0 .192-.059.395-.176.608l-5.232 9.664c-.171.299-.406.448-.704.448-.203 0-.39-.069-.56-.208-.16-.149-.24-.331-.24-.544 0-.128.042-.277.128-.448l4.816-8.848h-5.2c-.256 0-.448-.059-.576-.176s-.192-.283-.192-.496c0-.459.256-.688.768-.688h6.448zm12.81 10.32a.88.88 0 0 1 .08.32c0 .203-.086.373-.256.512-.16.139-.342.208-.544.208a.78.78 0 0 1-.4-.112.82.82 0 0 1-.272-.352l-1.057-2.4h-5.855l-1.056 2.4c-.064.149-.16.267-.288.352a.78.78 0 0 1-.4.112c-.214 0-.406-.069-.576-.208a.65.65 0 0 1-.24-.512.86.86 0 0 1 .08-.32l4.512-9.872a.85.85 0 0 1 .352-.4 1.06 1.06 0 0 1 .528-.144.98.98 0 0 1 .512.144.84.84 0 0 1 .368.4l4.512 9.872zm-7.712-3.136h4.688l-2.352-5.296-2.336 5.296z" class="B"/><path d="M283.78 356.096c-.608 0-1.188-.084-1.74-.252-.544-.168-.98-.4-1.308-.696-.152-.128-.228-.292-.228-.492 0-.144.04-.264.12-.36.08-.104.176-.156.288-.156s.248.052.408.156c.712.528 1.524.792 2.436.792.64 0 1.132-.12 1.476-.36s.516-.584.516-1.032a.85.85 0 0 0-.48-.792c-.32-.176-.832-.344-1.536-.504-.672-.144-1.224-.308-1.656-.492s-.772-.432-1.02-.744c-.24-.32-.36-.724-.36-1.212s.132-.92.396-1.296c.272-.384.648-.68 1.128-.888.48-.216 1.028-.324 1.644-.324.568 0 1.092.08 1.572.24s.888.396 1.224.708c.16.136.24.3.24.492a.54.54 0 0 1-.132.36c-.08.104-.176.156-.288.156-.104 0-.236-.052-.396-.156-.368-.28-.716-.48-1.044-.6-.32-.128-.708-.192-1.164-.192-.616 0-1.096.128-1.44.384-.344.248-.516.596-.516 1.044 0 .384.152.676.456.876.304.192.792.368 1.464.528.704.16 1.272.328 1.704.504.44.168.788.404 1.044.708.264.296.396.68.396 1.152 0 .48-.136.908-.408 1.284-.264.368-.64.656-1.128.864-.48.2-1.036.3-1.668.3zm9.167-1.572a.34.34 0 0 1 .276.132c.072.088.108.2.108.336 0 .232-.144.428-.432.588-.28.16-.588.284-.924.372-.328.088-.644.132-.948.132-.928 0-1.66-.268-2.196-.804-.536-.544-.804-1.284-.804-2.22 0-.6.116-1.132.348-1.596.24-.464.572-.824.996-1.08.432-.256.92-.384 1.464-.384.784 0 1.404.252 1.86.756s.684 1.184.684 2.04c0 .32-.144.48-.432.48h-3.708c.08 1.24.676 1.86 1.788 1.86.296 0 .552-.04.768-.12s.444-.184.684-.312c.024-.016.088-.048.192-.096.112-.056.204-.084.276-.084zm-2.088-3.636c-.464 0-.836.148-1.116.444s-.448.712-.504 1.248h3.096c-.024-.544-.164-.96-.42-1.248-.248-.296-.6-.444-1.056-.444zm6.316-.888c.776 0 1.352.196 1.728.588.384.392.576.988.576 1.788v3.108c0 .184-.052.328-.156.432-.104.096-.248.144-.432.144-.176 0-.316-.052-.42-.156s-.156-.244-.156-.42v-.444c-.152.336-.38.596-.684.78-.296.176-.644.264-1.044.264a2.43 2.43 0 0 1-1.056-.228c-.312-.16-.56-.376-.744-.648a1.61 1.61 0 0 1-.276-.924c-.008-.432.1-.768.324-1.008.224-.248.588-.424 1.092-.528.504-.112 1.204-.168 2.1-.168h.276v-.348c0-.448-.092-.772-.276-.972s-.48-.3-.888-.3c-.28 0-.544.036-.792.108s-.52.176-.816.312c-.216.12-.368.18-.456.18a.39.39 0 0 1-.3-.132c-.072-.088-.108-.2-.108-.336 0-.12.032-.224.096-.312.072-.096.184-.188.336-.276a3.94 3.94 0 0 1 .984-.36 4.41 4.41 0 0 1 1.092-.144zm-.372 5.184c.44 0 .8-.148 1.08-.444.28-.304.42-.692.42-1.164v-.312h-.216c-.624 0-1.104.028-1.44.084s-.576.152-.72.288c-.144.128-.216.316-.216.564a.9.9 0 0 0 .312.708c.208.184.468.276.78.276zm7.202-.048c.176.016.3.064.372.144.08.072.12.176.12.312 0 .16-.064.284-.192.372-.12.08-.3.112-.54.096l-.324-.024c-.648-.048-1.132-.244-1.452-.588-.32-.352-.48-.868-.48-1.548v-2.82h-.72c-.352 0-.528-.156-.528-.468 0-.144.044-.256.132-.336.096-.088.228-.132.396-.132h.72v-1.236c0-.184.052-.328.156-.432.112-.104.26-.156.444-.156s.332.052.444.156a.56.56 0 0 1 .168.432v1.236h1.188c.168 0 .296.044.384.132.096.08.144.192.144.336 0 .152-.048.268-.144.348-.088.08-.216.12-.384.12h-1.188v2.904c0 .376.076.652.228.828.16.176.4.276.72.3l.336.024z" class="C"/><path d="M172.8 383.128c-1.312 0-2.315-.491-3.008-1.472-.683-.981-1.024-2.411-1.024-4.288 0-1.888.341-3.323 1.024-4.304.693-.981 1.696-1.472 3.008-1.472s2.309.491 2.992 1.472c.693.971 1.04 2.4 1.04 4.288s-.347 3.323-1.04 4.304c-.683.981-1.68 1.472-2.992 1.472zm0-1.328a1.91 1.91 0 0 0 1.808-1.072c.384-.715.576-1.84.576-3.376s-.192-2.656-.576-3.36a1.91 1.91 0 0 0-1.808-1.072 1.91 1.91 0 0 0-1.808 1.072c-.384.704-.576 1.824-.576 3.36 0 1.525.192 2.651.576 3.376a1.91 1.91 0 0 0 1.808 1.072zm9.242-10.208c1.397 0 2.469.48 3.216 1.44.757.949 1.136 2.309 1.136 4.08 0 1.248-.176 2.325-.528 3.232-.352.896-.859 1.584-1.52 2.064s-1.446.72-2.352.72c-.608 0-1.216-.112-1.824-.336a4.58 4.58 0 0 1-1.552-.928c-.214-.181-.32-.395-.32-.64 0-.192.053-.352.16-.48.106-.139.234-.208.384-.208.096 0 .181.016.256.048a1.34 1.34 0 0 1 .288.16c.896.693 1.749 1.04 2.56 1.04.885 0 1.573-.405 2.064-1.216.49-.821.736-1.963.736-3.424v-.032c-.235.544-.619.976-1.152 1.296-.523.309-1.115.464-1.776.464-.672 0-1.275-.149-1.808-.448a3.26 3.26 0 0 1-1.248-1.28c-.288-.544-.432-1.168-.432-1.872s.16-1.333.48-1.888a3.37 3.37 0 0 1 1.312-1.312c.565-.32 1.205-.48 1.92-.48zm.08 5.936c.672 0 1.216-.208 1.632-.624.426-.427.64-.981.64-1.664 0-.693-.208-1.248-.624-1.664-.416-.427-.966-.64-1.648-.64-.662 0-1.195.213-1.6.64-.395.416-.592.971-.592 1.664 0 .683.197 1.237.592 1.664.405.416.938.624 1.6.624zm6.97 5.552a1.03 1.03 0 0 1-.736-.288c-.192-.192-.288-.437-.288-.736s.096-.544.288-.736a1 1 0 0 1 .736-.304.95.95 0 0 1 .72.304c.192.192.288.437.288.736s-.096.544-.288.736-.432.288-.72.288zm6.708.048c-1.312 0-2.315-.491-3.008-1.472-.683-.981-1.024-2.411-1.024-4.288 0-1.888.341-3.323 1.024-4.304.693-.981 1.696-1.472 3.008-1.472s2.309.491 2.992 1.472c.693.971 1.04 2.4 1.04 4.288s-.347 3.323-1.04 4.304c-.683.981-1.68 1.472-2.992 1.472zm0-1.328a1.91 1.91 0 0 0 1.808-1.072c.384-.715.576-1.84.576-3.376s-.192-2.656-.576-3.36a1.91 1.91 0 0 0-1.808-1.072 1.91 1.91 0 0 0-1.808 1.072c-.384.704-.576 1.824-.576 3.36 0 1.525.192 2.651.576 3.376a1.91 1.91 0 0 0 1.808 1.072zm9.594 1.328c-1.312 0-2.315-.491-3.008-1.472-.683-.981-1.024-2.411-1.024-4.288 0-1.888.341-3.323 1.024-4.304.693-.981 1.696-1.472 3.008-1.472s2.309.491 2.992 1.472c.693.971 1.04 2.4 1.04 4.288s-.347 3.323-1.04 4.304c-.683.981-1.68 1.472-2.992 1.472zm0-1.328a1.91 1.91 0 0 0 1.808-1.072c.384-.715.576-1.84.576-3.376s-.192-2.656-.576-3.36a1.91 1.91 0 0 0-1.808-1.072 1.91 1.91 0 0 0-1.808 1.072c-.384.704-.576 1.824-.576 3.36 0 1.525.192 2.651.576 3.376a1.91 1.91 0 0 0 1.808 1.072zm13.412-6.8c1.035 0 1.803.261 2.304.784.512.523.768 1.317.768 2.384v4.144c0 .245-.069.437-.208.576-.138.128-.33.192-.576.192-.234 0-.421-.069-.56-.208s-.208-.325-.208-.56v-.592c-.202.448-.506.795-.912 1.04-.394.235-.858.352-1.392.352-.512 0-.981-.101-1.408-.304-.416-.213-.746-.501-.992-.864a2.15 2.15 0 0 1-.368-1.232c-.01-.576.134-1.024.432-1.344.299-.331.784-.565 1.456-.704.672-.149 1.606-.224 2.8-.224h.368v-.464c0-.597-.122-1.029-.368-1.296s-.64-.4-1.184-.4c-.373 0-.725.048-1.056.144s-.693.235-1.088.416c-.288.16-.49.24-.608.24a.52.52 0 0 1-.4-.176c-.096-.117-.144-.267-.144-.448a.69.69 0 0 1 .128-.416c.096-.128.246-.251.448-.368.374-.203.811-.363 1.312-.48.502-.128.987-.192 1.456-.192zm-.496 6.912c.587 0 1.067-.197 1.44-.592.374-.405.56-.923.56-1.552v-.416h-.288c-.832 0-1.472.037-1.92.112s-.768.203-.96.384c-.192.171-.288.421-.288.752 0 .384.139.699.416.944s.624.368 1.04.368zM233.049 375c1.749 0 2.624 1.051 2.624 3.152v4.16c0 .245-.075.437-.224.576-.15.128-.347.192-.592.192-.235 0-.427-.064-.576-.192-.15-.139-.224-.331-.224-.576v-4.144c0-.651-.118-1.12-.352-1.408-.235-.299-.603-.448-1.104-.448-.587 0-1.051.203-1.392.608-.342.395-.512.939-.512 1.632v3.76c0 .245-.075.437-.224.576-.15.128-.347.192-.592.192-.235 0-.427-.064-.576-.192-.15-.139-.224-.331-.224-.576v-4.144c0-.651-.118-1.12-.352-1.408-.235-.299-.603-.448-1.104-.448-.587 0-1.056.203-1.408.608-.342.395-.512.939-.512 1.632v3.76c0 .245-.075.437-.224.576-.15.128-.342.192-.576.192s-.432-.064-.592-.192c-.15-.139-.224-.331-.224-.576V375.8c0-.235.08-.421.24-.56s.352-.208.576-.208.405.069.544.208c.149.128.224.309.224.544v.592c.234-.448.56-.789.976-1.024s.896-.352 1.44-.352c.597 0 1.088.123 1.472.368.394.245.688.624.88 1.136.234-.459.581-.821 1.04-1.088a2.97 2.97 0 0 1 1.568-.416z" class="B"/><path d="M171.624 356.06c-.184 0-.336-.056-.456-.168-.112-.12-.168-.272-.168-.456v-6.864h-2.4c-.384 0-.576-.172-.576-.516 0-.168.048-.296.144-.384.104-.088.248-.132.432-.132h6.048c.184 0 .324.044.42.132.104.088.156.216.156.384 0 .344-.192.516-.576.516h-2.4v6.864c0 .184-.056.336-.168.456-.112.112-.264.168-.456.168zm5.75 0c-.176 0-.324-.048-.444-.144-.112-.096-.168-.24-.168-.432v-4.872c0-.192.056-.336.168-.432.12-.104.268-.156.444-.156a.61.61 0 0 1 .432.156c.112.096.168.24.168.432v4.872c0 .192-.056.336-.168.432a.64.64 0 0 1-.432.144zm0-7.212c-.232 0-.416-.064-.552-.192a.66.66 0 0 1-.204-.504c0-.208.068-.372.204-.492.136-.128.32-.192.552-.192.224 0 .404.064.54.192.144.12.216.284.216.492a.66.66 0 0 1-.204.504c-.136.128-.32.192-.552.192zm9.014 1.152c1.312 0 1.968.788 1.968 2.364v3.12a.56.56 0 0 1-.168.432c-.112.096-.26.144-.444.144a.64.64 0 0 1-.432-.144.56.56 0 0 1-.168-.432v-3.108c0-.488-.088-.84-.264-1.056-.176-.224-.452-.336-.828-.336-.44 0-.788.152-1.044.456-.256.296-.384.704-.384 1.224v2.82a.56.56 0 0 1-.168.432c-.112.096-.26.144-.444.144a.64.64 0 0 1-.432-.144.56.56 0 0 1-.168-.432v-3.108c0-.488-.088-.84-.264-1.056-.176-.224-.452-.336-.828-.336-.44 0-.792.152-1.056.456-.256.296-.384.704-.384 1.224v2.82a.56.56 0 0 1-.168.432.64.64 0 0 1-.432.144c-.176 0-.324-.048-.444-.144a.56.56 0 0 1-.168-.432V350.6c0-.176.06-.316.18-.42s.264-.156.432-.156.304.052.408.156c.112.096.168.232.168.408v.444c.176-.336.42-.592.732-.768a2.16 2.16 0 0 1 1.08-.264c.448 0 .816.092 1.104.276.296.184.516.468.66.852.176-.344.436-.616.78-.816.344-.208.736-.312 1.176-.312zm8.212 4.524a.34.34 0 0 1 .276.132c.072.088.108.2.108.336 0 .232-.144.428-.432.588-.28.16-.588.284-.924.372-.328.088-.644.132-.948.132-.928 0-1.66-.268-2.196-.804-.536-.544-.804-1.284-.804-2.22 0-.6.116-1.132.348-1.596.24-.464.572-.824.996-1.08.432-.256.92-.384 1.464-.384.784 0 1.404.252 1.86.756s.684 1.184.684 2.04c0 .32-.144.48-.432.48h-3.708c.08 1.24.676 1.86 1.788 1.86.296 0 .552-.04.768-.12s.444-.184.684-.312c.024-.016.088-.048.192-.096.112-.056.204-.084.276-.084zm-2.088-3.636c-.464 0-.836.148-1.116.444s-.448.712-.504 1.248h3.096c-.024-.544-.164-.96-.42-1.248-.248-.296-.6-.444-1.056-.444z" class="C"/><path d="M53.04 383.128c-.811 0-1.584-.112-2.32-.336-.725-.224-1.307-.533-1.744-.928a.82.82 0 0 1-.304-.656c0-.192.053-.352.16-.48.107-.139.235-.208.384-.208s.331.069.544.208a5.31 5.31 0 0 0 3.248 1.056c.853 0 1.509-.16 1.968-.48s.688-.779.688-1.376c0-.469-.213-.821-.64-1.056s-1.109-.459-2.048-.672c-.896-.192-1.632-.411-2.208-.656s-1.029-.576-1.36-.992c-.32-.427-.48-.965-.48-1.616a2.93 2.93 0 0 1 .528-1.728c.363-.512.864-.907 1.504-1.184.64-.288 1.371-.432 2.192-.432.757 0 1.456.107 2.096.32s1.184.528 1.632.944c.213.181.32.4.32.656a.72.72 0 0 1-.176.48c-.107.139-.235.208-.384.208-.139 0-.315-.069-.528-.208-.491-.373-.955-.64-1.392-.8-.427-.171-.944-.256-1.552-.256-.821 0-1.461.171-1.92.512-.459.331-.688.795-.688 1.392 0 .512.203.901.608 1.168.405.256 1.056.491 1.952.704.939.213 1.696.437 2.272.672.587.224 1.051.539 1.392.944.352.395.528.907.528 1.536 0 .64-.181 1.211-.544 1.712-.352.491-.853.875-1.504 1.152-.64.267-1.381.4-2.224.4zm12.223-2.096c.149 0 .272.059.368.176s.144.267.144.448c0 .309-.192.571-.576.784a5.05 5.05 0 0 1-1.232.496c-.437.117-.859.176-1.264.176-1.237 0-2.213-.357-2.928-1.072-.715-.725-1.072-1.712-1.072-2.96 0-.8.155-1.509.464-2.128.32-.619.763-1.099 1.328-1.44.576-.341 1.227-.512 1.952-.512 1.045 0 1.872.336 2.48 1.008s.912 1.579.912 2.72c0 .427-.192.64-.576.64h-4.944c.107 1.653.901 2.48 2.384 2.48.395 0 .736-.053 1.024-.16s.592-.245.912-.416c.032-.021.117-.064.256-.128.149-.075.272-.112.368-.112zm-2.784-4.848c-.619 0-1.115.197-1.488.592s-.597.949-.672 1.664h4.128c-.032-.725-.219-1.28-.56-1.664-.331-.395-.8-.592-1.408-.592zM71.812 375c.672 0 1.269.171 1.792.512.533.341.944.821 1.232 1.44.299.619.448 1.333.448 2.144 0 .8-.144 1.504-.432 2.112s-.699 1.077-1.232 1.408c-.523.331-1.125.496-1.808.496-.587 0-1.104-.123-1.552-.368-.448-.256-.789-.619-1.024-1.088v3.568c0 .224-.075.4-.224.528-.139.139-.325.208-.56.208-.245 0-.448-.069-.608-.208-.149-.139-.224-.325-.224-.56v-9.376c0-.235.075-.421.224-.56.149-.149.347-.224.592-.224a.78.78 0 0 1 .576.224c.149.139.224.325.224.56v.656c.235-.469.576-.832 1.024-1.088s.965-.384 1.552-.384zm-.384 6.832c.704 0 1.248-.235 1.632-.704.384-.48.576-1.157.576-2.032 0-.885-.197-1.573-.592-2.064-.384-.491-.923-.736-1.616-.736-.704 0-1.248.24-1.632.72-.373.48-.56 1.163-.56 2.048s.187 1.568.56 2.048c.384.48.928.72 1.632.72zm6.163-.816c.32 0 .571.117.752.352.192.235.288.581.288 1.04 0 .907-.304 1.691-.912 2.352-.128.128-.267.192-.416.192a.48.48 0 0 1-.352-.144.41.41 0 0 1-.144-.32c0-.107.048-.219.144-.336.299-.309.491-.677.576-1.104-.267-.021-.491-.123-.672-.304-.171-.181-.256-.411-.256-.688 0-.299.096-.544.288-.736a.93.93 0 0 1 .704-.304zm14.207.624c.256 0 .448.059.576.176.139.117.208.283.208.496 0 .459-.261.688-.784.688h-6.176c-.235 0-.421-.064-.56-.192-.128-.139-.192-.309-.192-.512 0-.245.096-.469.288-.672l3.76-4.112c.501-.544.864-1.04 1.088-1.488s.336-.891.336-1.328c0-.565-.165-.997-.496-1.296-.32-.309-.779-.464-1.376-.464-.907 0-1.808.347-2.704 1.04l-.304.176c-.075.032-.155.048-.24.048-.149 0-.277-.069-.384-.208a.79.79 0 0 1-.16-.496.76.76 0 0 1 .32-.64c.448-.384.987-.688 1.616-.912.629-.235 1.264-.352 1.904-.352 1.056 0 1.893.272 2.512.816.629.533.944 1.259.944 2.176a4.16 4.16 0 0 1-.432 1.856c-.277.587-.747 1.243-1.408 1.968l-3.024 3.232h4.688zm6.346 1.488c-1.312 0-2.315-.491-3.008-1.472-.683-.981-1.024-2.411-1.024-4.288 0-1.888.341-3.323 1.024-4.304.693-.981 1.696-1.472 3.008-1.472s2.309.491 2.992 1.472c.693.971 1.04 2.4 1.04 4.288s-.347 3.323-1.04 4.304c-.683.981-1.68 1.472-2.992 1.472zm0-1.328a1.91 1.91 0 0 0 1.808-1.072c.384-.715.576-1.84.576-3.376s-.192-2.656-.576-3.36a1.91 1.91 0 0 0-1.808-1.072 1.91 1.91 0 0 0-1.808 1.072c-.384.704-.576 1.824-.576 3.36 0 1.525.192 2.651.576 3.376a1.91 1.91 0 0 0 1.808 1.072zm17.06-.16c.256 0 .448.059.576.176.139.117.208.283.208.496 0 .459-.261.688-.784.688h-6.176c-.234 0-.421-.064-.56-.192-.128-.139-.192-.309-.192-.512 0-.245.096-.469.288-.672l3.76-4.112c.502-.544.864-1.04 1.088-1.488s.336-.891.336-1.328c0-.565-.165-.997-.496-1.296-.32-.309-.778-.464-1.376-.464-.906 0-1.808.347-2.704 1.04l-.304.176a.6.6 0 0 1-.24.048c-.149 0-.277-.069-.384-.208s-.16-.304-.16-.496a.76.76 0 0 1 .32-.64c.448-.384.987-.688 1.616-.912a5.41 5.41 0 0 1 1.904-.352c1.056 0 1.894.272 2.512.816.63.533.944 1.259.944 2.176a4.16 4.16 0 0 1-.432 1.856c-.277.587-.746 1.243-1.408 1.968l-3.024 3.232h4.688zm6.346 1.488c-1.312 0-2.315-.491-3.008-1.472-.683-.981-1.024-2.411-1.024-4.288 0-1.888.341-3.323 1.024-4.304.693-.981 1.696-1.472 3.008-1.472s2.309.491 2.992 1.472c.693.971 1.04 2.4 1.04 4.288s-.347 3.323-1.04 4.304c-.683.981-1.68 1.472-2.992 1.472zm0-1.328a1.91 1.91 0 0 0 1.808-1.072c.384-.715.576-1.84.576-3.376s-.192-2.656-.576-3.36a1.91 1.91 0 0 0-1.808-1.072 1.91 1.91 0 0 0-1.808 1.072c-.384.704-.576 1.824-.576 3.36 0 1.525.192 2.651.576 3.376a1.91 1.91 0 0 0 1.808 1.072zm12.842-.16c.256 0 .448.059.576.176.138.117.208.283.208.496 0 .459-.262.688-.784.688h-6.176c-.235 0-.422-.064-.56-.192-.128-.139-.192-.309-.192-.512 0-.245.096-.469.288-.672l3.76-4.112c.501-.544.864-1.04 1.088-1.488s.336-.891.336-1.328c0-.565-.166-.997-.496-1.296-.32-.309-.779-.464-1.376-.464-.907 0-1.808.347-2.704 1.04l-.304.176c-.075.032-.155.048-.24.048-.15 0-.278-.069-.384-.208s-.16-.304-.16-.496c0-.267.106-.48.32-.64.448-.384.986-.688 1.616-.912.629-.235 1.264-.352 1.904-.352 1.056 0 1.893.272 2.512.816.629.533.944 1.259.944 2.176a4.16 4.16 0 0 1-.432 1.856c-.278.587-.747 1.243-1.408 1.968l-3.024 3.232h4.688zm9.482 0c.256 0 .448.059.576.176s.192.283.192.496c0 .459-.256.688-.768.688h-5.344c-.523 0-.784-.229-.784-.688 0-.213.064-.379.192-.496.138-.117.336-.176.592-.176h1.84v-7.984l-1.648 1.04a.62.62 0 0 1-.32.096c-.182 0-.342-.08-.48-.24-.128-.16-.192-.341-.192-.544a.65.65 0 0 1 .319-.576l2.465-1.568c.245-.149.48-.224.704-.224.234 0 .426.075.576.224s.224.352.224.608v9.168h1.856z" class="B"/><path d="M49.596 356.06a.6.6 0 0 1-.444-.168c-.112-.12-.168-.272-.168-.456v-7.296c0-.184.052-.328.156-.432.112-.112.264-.168.456-.168h4.296c.384 0 .576.168.576.504s-.192.504-.576.504h-3.684v2.652h3.444c.384 0 .576.168.576.504s-.192.504-.576.504h-3.444v3.228c0 .192-.056.344-.168.456-.104.112-.252.168-.444.168zm7.063 0c-.176 0-.324-.048-.444-.144-.112-.096-.168-.24-.168-.432v-7.416c0-.192.056-.336.168-.432.12-.104.268-.156.444-.156a.61.61 0 0 1 .432.156c.112.096.168.24.168.432v7.416c0 .192-.056.336-.168.432a.64.64 0 0 1-.432.144zm2.906 0c-.176 0-.324-.048-.444-.144-.112-.096-.168-.24-.168-.432v-4.872c0-.192.056-.336.168-.432.12-.104.268-.156.444-.156a.61.61 0 0 1 .432.156c.112.096.168.24.168.432v4.872c0 .192-.056.336-.168.432a.64.64 0 0 1-.432.144zm0-7.212c-.232 0-.416-.064-.552-.192a.66.66 0 0 1-.204-.504c0-.208.068-.372.204-.492.136-.128.32-.192.552-.192.224 0 .404.064.54.192.144.12.216.284.216.492a.66.66 0 0 1-.204.504c-.136.128-.32.192-.552.192zm7.142 1.176a.56.56 0 0 1 .432.168c.112.104.168.244.168.42v4.92c0 .896-.24 1.572-.72 2.028-.472.456-1.172.684-2.1.684-.864 0-1.584-.164-2.16-.492-.296-.168-.444-.368-.444-.6 0-.136.036-.248.108-.336.08-.088.176-.132.288-.132.104 0 .268.06.492.18a5.48 5.48 0 0 0 .804.312c.248.08.544.12.888.12 1.104 0 1.656-.556 1.656-1.668v-.924c-.168.352-.424.628-.768.828-.344.192-.744.288-1.2.288-.512 0-.968-.12-1.368-.36a2.46 2.46 0 0 1-.936-1.02c-.216-.44-.324-.948-.324-1.524s.112-1.084.336-1.524.532-.78.924-1.02c.4-.248.856-.372 1.368-.372.448 0 .84.096 1.176.288.344.192.604.464.78.816v-.504c0-.176.052-.316.156-.42.112-.104.26-.156.444-.156zm-2.268 4.836c.52 0 .928-.172 1.224-.516s.444-.82.444-1.428c0-.6-.148-1.072-.444-1.416-.288-.352-.696-.528-1.224-.528s-.944.172-1.248.516c-.296.344-.444.82-.444 1.428s.152 1.084.456 1.428.716.516 1.236.516zm7.725-4.86c1.392 0 2.088.788 2.088 2.364v3.12c0 .176-.056.316-.168.42s-.26.156-.444.156-.332-.052-.444-.156c-.104-.104-.156-.244-.156-.42v-3.108c0-.48-.1-.832-.3-1.056-.192-.224-.496-.336-.912-.336-.488 0-.88.152-1.176.456s-.444.712-.444 1.224v2.82c0 .176-.056.316-.168.42-.104.104-.248.156-.432.156s-.332-.052-.444-.156-.168-.244-.168-.42v-7.428c0-.176.056-.316.168-.42a.67.67 0 0 1 .456-.156c.176 0 .316.052.42.156.112.096.168.228.168.396v3c.2-.336.468-.592.804-.768s.72-.264 1.152-.264zm6.614 5.136c.176.016.3.064.372.144.08.072.12.176.12.312 0 .16-.064.284-.192.372-.12.08-.3.112-.54.096l-.324-.024c-.648-.048-1.132-.244-1.452-.588-.32-.352-.48-.868-.48-1.548v-2.82h-.72c-.352 0-.528-.156-.528-.468 0-.144.044-.256.132-.336.096-.088.228-.132.396-.132h.72v-1.236c0-.184.052-.328.156-.432.112-.104.26-.156.444-.156s.332.052.444.156a.56.56 0 0 1 .168.432v1.236h1.188c.168 0 .296.044.384.132.096.08.144.192.144.336 0 .152-.048.268-.144.348-.088.08-.216.12-.384.12h-1.188v2.904c0 .376.076.652.228.828.16.176.4.276.72.3l.336.024zm5.282.864c-.192 0-.344-.052-.456-.156-.104-.112-.156-.26-.156-.444v-7.26c0-.184.052-.328.156-.432.112-.112.264-.168.456-.168h2.352c1.368 0 2.428.368 3.18 1.104s1.128 1.776 1.128 3.12-.376 2.388-1.128 3.132c-.752.736-1.812 1.104-3.18 1.104h-2.352zm2.28-1.032c2.08 0 3.12-1.068 3.12-3.204 0-2.128-1.04-3.192-3.12-3.192h-1.656v6.396h1.656zM94.718 350c.776 0 1.352.196 1.728.588.384.392.576.988.576 1.788v3.108c0 .184-.052.328-.156.432-.104.096-.248.144-.432.144-.176 0-.316-.052-.42-.156s-.156-.244-.156-.42v-.444c-.152.336-.38.596-.684.78-.296.176-.644.264-1.044.264a2.43 2.43 0 0 1-1.056-.228c-.312-.16-.56-.376-.744-.648a1.61 1.61 0 0 1-.276-.924c-.008-.432.1-.768.324-1.008.224-.248.588-.424 1.092-.528.504-.112 1.204-.168 2.1-.168h.276v-.348c0-.448-.092-.772-.276-.972s-.48-.3-.888-.3c-.28 0-.544.036-.792.108s-.52.176-.816.312c-.216.12-.368.18-.456.18a.39.39 0 0 1-.3-.132c-.072-.088-.108-.2-.108-.336 0-.12.032-.224.096-.312.072-.096.184-.188.336-.276a3.94 3.94 0 0 1 .984-.36 4.41 4.41 0 0 1 1.092-.144zm-.372 5.184c.44 0 .8-.148 1.08-.444.28-.304.42-.692.42-1.164v-.312h-.216c-.624 0-1.104.028-1.44.084s-.576.152-.72.288c-.144.128-.216.316-.216.564a.9.9 0 0 0 .312.708c.208.184.468.276.78.276zm7.202-.048c.176.016.3.064.372.144.08.072.12.176.12.312 0 .16-.064.284-.192.372-.12.08-.3.112-.54.096l-.324-.024c-.648-.048-1.132-.244-1.452-.588-.32-.352-.48-.868-.48-1.548v-2.82h-.72c-.352 0-.528-.156-.528-.468 0-.144.044-.256.132-.336.096-.088.228-.132.396-.132h.72v-1.236c0-.184.052-.328.156-.432.112-.104.26-.156.444-.156s.332.052.444.156a.56.56 0 0 1 .168.432v1.236h1.188c.168 0 .296.044.384.132.096.08.144.192.144.336 0 .152-.048.268-.144.348-.088.08-.216.12-.384.12h-1.188v2.904c0 .376.076.652.228.828.16.176.4.276.72.3l.336.024zm5.946-.612a.34.34 0 0 1 .276.132c.072.088.108.2.108.336 0 .232-.144.428-.432.588-.28.16-.588.284-.924.372-.328.088-.644.132-.948.132-.928 0-1.66-.268-2.196-.804-.536-.544-.804-1.284-.804-2.22 0-.6.116-1.132.348-1.596.24-.464.572-.824.996-1.08.432-.256.92-.384 1.464-.384.784 0 1.404.252 1.86.756s.684 1.184.684 2.04c0 .32-.144.48-.432.48h-3.708c.08 1.24.676 1.86 1.788 1.86.296 0 .552-.04.768-.12s.444-.184.684-.312c.024-.016.088-.048.192-.096.112-.056.204-.084.276-.084zm-2.088-3.636c-.464 0-.836.148-1.116.444s-.448.712-.504 1.248h3.096c-.024-.544-.164-.96-.42-1.248-.248-.296-.6-.444-1.056-.444z" class="C"/><path d="M285.312 292.864c.704 0 1.323.149 1.856.448a3.14 3.14 0 0 1 1.264 1.264c.299.544.448 1.168.448 1.872 0 .715-.165 1.349-.496 1.904s-.795.987-1.392 1.296c-.587.309-1.264.464-2.032.464a5.87 5.87 0 0 1-1.952-.336c-.629-.224-1.157-.533-1.584-.928-.213-.181-.32-.395-.32-.64 0-.192.053-.352.16-.48.107-.139.235-.208.384-.208.096 0 .181.016.256.048a1.34 1.34 0 0 1 .288.16c.437.341.875.603 1.312.784.448.171.917.256 1.408.256.747 0 1.328-.197 1.744-.592.416-.405.624-.971.624-1.696 0-.693-.213-1.248-.64-1.664-.416-.416-.976-.624-1.68-.624-.459 0-.869.08-1.232.24-.363.149-.704.389-1.024.72-.16.149-.352.224-.576.224a.7.7 0 0 1-.464-.16c-.117-.117-.176-.267-.176-.448v-5.264c0-.245.064-.437.192-.576.139-.139.336-.208.592-.208h5.504c.245 0 .437.059.576.176s.208.277.208.48c0 .213-.069.379-.208.496s-.331.176-.576.176h-4.656v3.552c.587-.491 1.317-.736 2.192-.736zm12.234 1.328c.65.181 1.152.507 1.504.976.362.469.544 1.056.544 1.76 0 .971-.336 1.728-1.008 2.272-.662.533-1.59.8-2.784.8h-4.08c-.256 0-.459-.069-.608-.208-.139-.149-.208-.347-.208-.592v-9.68c0-.245.069-.437.208-.576.149-.149.352-.224.608-.224h3.904c1.162 0 2.069.261 2.72.784.661.512.992 1.232.992 2.16 0 .597-.16 1.115-.48 1.552-.31.437-.747.763-1.312.976zm-5.024-.592h2.848c1.578 0 2.368-.597 2.368-1.792 0-.597-.198-1.04-.592-1.328-.384-.288-.976-.432-1.776-.432h-2.848v3.552zm3.104 5.072c.821 0 1.424-.149 1.808-.448s.576-.763.576-1.392c0-.64-.198-1.115-.592-1.424-.384-.32-.982-.48-1.792-.48h-3.104v3.744h3.104z" class="B"/><path d="M287.344 268.512c.152 0 .272.044.36.132.096.088.144.208.144.36v2.808c0 .272-.04.468-.12.588-.072.12-.22.216-.444.288-.32.128-.7.228-1.14.3a8.09 8.09 0 0 1-1.308.108c-.856 0-1.596-.172-2.22-.516s-1.1-.84-1.428-1.488-.492-1.424-.492-2.328c0-.888.164-1.656.492-2.304a3.46 3.46 0 0 1 1.404-1.488c.616-.352 1.336-.528 2.16-.528.56 0 1.076.084 1.548.252.48.16.888.396 1.224.708a.59.59 0 0 1 .24.48c0 .144-.04.268-.12.372-.08.096-.176.144-.288.144-.072 0-.136-.012-.192-.036a1.61 1.61 0 0 1-.216-.12c-.392-.288-.748-.488-1.068-.6-.32-.12-.688-.18-1.104-.18-.912 0-1.608.284-2.088.852-.48.56-.72 1.376-.72 2.448 0 1.096.244 1.928.732 2.496.496.56 1.22.84 2.172.84.64 0 1.256-.096 1.848-.288v-2.364h-1.572a.58.58 0 0 1-.384-.12.47.47 0 0 1-.132-.348c0-.144.044-.256.132-.336.096-.088.224-.132.384-.132h2.196zM292.03 267c.776 0 1.352.196 1.728.588.384.392.576.988.576 1.788v3.108c0 .184-.052.328-.156.432-.104.096-.248.144-.432.144-.176 0-.316-.052-.42-.156s-.156-.244-.156-.42v-.444c-.152.336-.38.596-.684.78-.296.176-.644.264-1.044.264a2.43 2.43 0 0 1-1.056-.228c-.312-.16-.56-.376-.744-.648a1.61 1.61 0 0 1-.276-.924c-.008-.432.1-.768.324-1.008.224-.248.588-.424 1.092-.528.504-.112 1.204-.168 2.1-.168h.276v-.348c0-.448-.092-.772-.276-.972s-.48-.3-.888-.3c-.28 0-.544.036-.792.108s-.52.176-.816.312c-.216.12-.368.18-.456.18a.39.39 0 0 1-.3-.132c-.072-.088-.108-.2-.108-.336 0-.12.032-.224.096-.312.072-.096.184-.188.336-.276a3.94 3.94 0 0 1 .984-.36 4.41 4.41 0 0 1 1.092-.144zm-.372 5.184c.44 0 .8-.148 1.08-.444.28-.304.42-.692.42-1.164v-.312h-.216c-.624 0-1.104.028-1.44.084s-.576.152-.72.288c-.144.128-.216.316-.216.564a.9.9 0 0 0 .312.708c.208.184.468.276.78.276zm7.202-.048c.176.016.3.064.372.144.08.072.12.176.12.312 0 .16-.064.284-.192.372-.12.08-.3.112-.54.096l-.324-.024c-.648-.048-1.132-.244-1.452-.588-.32-.352-.48-.868-.48-1.548v-2.82h-.72c-.352 0-.528-.156-.528-.468 0-.144.044-.256.132-.336.096-.088.228-.132.396-.132h.72v-1.236c0-.184.052-.328.156-.432.112-.104.26-.156.444-.156s.332.052.444.156a.56.56 0 0 1 .168.432v1.236h1.188c.168 0 .296.044.384.132.096.08.144.192.144.336 0 .152-.048.268-.144.348-.088.08-.216.12-.384.12h-1.188v2.904c0 .376.076.652.228.828.16.176.4.276.72.3l.336.024zm5.947-.612a.34.34 0 0 1 .276.132c.072.088.108.2.108.336 0 .232-.144.428-.432.588-.28.16-.588.284-.924.372-.328.088-.644.132-.948.132-.928 0-1.66-.268-2.196-.804-.536-.544-.804-1.284-.804-2.22 0-.6.116-1.132.348-1.596.24-.464.572-.824.996-1.08.432-.256.92-.384 1.464-.384.784 0 1.404.252 1.86.756s.684 1.184.684 2.04c0 .32-.144.48-.432.48h-3.708c.08 1.24.676 1.86 1.788 1.86.296 0 .552-.04.768-.12s.444-.184.684-.312c.024-.016.088-.048.192-.096.112-.056.204-.084.276-.084zm-2.088-3.636c-.464 0-.836.148-1.116.444s-.448.712-.504 1.248h3.096c-.024-.544-.164-.96-.42-1.248-.248-.296-.6-.444-1.056-.444z" class="C"/><path d="M170.128 300c-.256 0-.459-.069-.608-.208-.139-.149-.208-.347-.208-.592v-9.68c0-.245.069-.437.208-.576.149-.149.352-.224.608-.224h5.888c.245 0 .432.059.56.176.139.117.208.283.208.496s-.069.379-.208.496c-.128.107-.315.16-.56.16h-5.088v3.552h4.768c.245 0 .432.059.56.176.139.117.208.283.208.496s-.069.379-.208.496c-.128.117-.315.176-.56.176h-4.768v3.728h5.088c.512 0 .768.219.768.656 0 .213-.069.379-.208.496-.128.117-.315.176-.56.176h-5.888zm11.695.112c-.757 0-1.424-.165-2-.496-.565-.331-1.008-.8-1.328-1.408-.309-.608-.464-1.312-.464-2.112 0-.811.16-1.525.48-2.144.331-.619.79-1.099 1.376-1.44s1.259-.512 2.016-.512a4.36 4.36 0 0 1 1.216.176 4.14 4.14 0 0 1 1.104.48c.342.235.512.507.512.816 0 .181-.048.336-.144.464-.096.117-.218.176-.368.176a.7.7 0 0 1-.288-.064l-.368-.224a3.8 3.8 0 0 0-.752-.384c-.224-.096-.496-.144-.816-.144-.725 0-1.29.245-1.696.736-.394.491-.592 1.173-.592 2.048s.198 1.552.592 2.032c.395.469.955.704 1.68.704.32 0 .603-.048.848-.144s.496-.224.752-.384c.118-.075.235-.139.352-.192a.79.79 0 0 1 .32-.08.44.44 0 0 1 .368.192c.096.117.144.267.144.448a.73.73 0 0 1-.128.416c-.074.117-.208.24-.4.368-.32.213-.693.379-1.12.496s-.858.176-1.296.176zm7.783 0c-.768 0-1.446-.165-2.032-.496-.576-.331-1.024-.8-1.344-1.408-.31-.619-.464-1.333-.464-2.144 0-.821.154-1.536.464-2.144a3.4 3.4 0 0 1 1.344-1.424c.586-.331 1.264-.496 2.032-.496s1.44.165 2.016.496c.586.331 1.034.805 1.344 1.424.32.608.48 1.323.48 2.144 0 .811-.16 1.525-.48 2.144-.31.608-.758 1.077-1.344 1.408-.576.331-1.248.496-2.016.496zm0-1.28c.714 0 1.258-.235 1.632-.704.384-.469.576-1.157.576-2.064 0-.896-.192-1.579-.576-2.048-.384-.48-.928-.72-1.632-.72s-1.248.24-1.632.72c-.384.469-.576 1.152-.576 2.048 0 .907.186 1.595.56 2.064.384.469.933.704 1.648.704zm9.847-6.832c1.867 0 2.8 1.051 2.8 3.152v4.16c0 .245-.075.437-.224.576-.139.128-.336.192-.592.192-.245 0-.443-.069-.592-.208-.139-.139-.208-.325-.208-.56v-4.08c0-.661-.133-1.147-.4-1.456-.256-.309-.661-.464-1.216-.464-.651 0-1.173.203-1.568.608s-.592.949-.592 1.632v3.76c0 .235-.075.421-.224.56-.139.139-.331.208-.576.208s-.443-.069-.592-.208-.224-.325-.224-.56V292.8a.71.71 0 0 1 .224-.544c.16-.149.357-.224.592-.224s.421.069.56.208.208.32.208.544v.656c.256-.469.613-.827 1.072-1.072s.976-.368 1.552-.368zm8.403 8.112c-.768 0-1.446-.165-2.032-.496-.576-.331-1.024-.8-1.344-1.408-.31-.619-.464-1.333-.464-2.144 0-.821.154-1.536.464-2.144a3.4 3.4 0 0 1 1.344-1.424c.586-.331 1.264-.496 2.032-.496s1.44.165 2.016.496c.586.331 1.034.805 1.344 1.424.32.608.48 1.323.48 2.144 0 .811-.16 1.525-.48 2.144-.31.608-.758 1.077-1.344 1.408-.576.331-1.248.496-2.016.496zm0-1.28c.714 0 1.258-.235 1.632-.704.384-.469.576-1.157.576-2.064 0-.896-.192-1.579-.576-2.048-.384-.48-.928-.72-1.632-.72s-1.248.24-1.632.72c-.384.469-.576 1.152-.576 2.048 0 .907.186 1.595.56 2.064.384.469.933.704 1.648.704zM222.455 292c1.749 0 2.624 1.051 2.624 3.152v4.16c0 .245-.075.437-.224.576-.149.128-.347.192-.592.192-.235 0-.427-.064-.576-.192-.149-.139-.224-.331-.224-.576v-4.144c0-.651-.117-1.12-.352-1.408-.235-.299-.603-.448-1.104-.448-.587 0-1.051.203-1.392.608-.341.395-.512.939-.512 1.632v3.76c0 .245-.075.437-.224.576-.149.128-.347.192-.592.192-.235 0-.427-.064-.576-.192-.149-.139-.224-.331-.224-.576v-4.144c0-.651-.117-1.12-.352-1.408-.235-.299-.603-.448-1.104-.448-.587 0-1.056.203-1.408.608-.341.395-.512.939-.512 1.632v3.76c0 .245-.075.437-.224.576-.149.128-.341.192-.576.192s-.432-.064-.592-.192c-.149-.139-.224-.331-.224-.576V292.8c0-.235.08-.421.24-.56s.352-.208.576-.208.405.069.544.208c.149.128.224.309.224.544v.592a2.45 2.45 0 0 1 .976-1.024c.416-.235.896-.352 1.44-.352.597 0 1.088.123 1.472.368.395.245.688.624.88 1.136.235-.459.581-.821 1.04-1.088.459-.277.981-.416 1.568-.416zm10.389.512c.064-.16.155-.277.272-.352a.78.78 0 0 1 .4-.112c.203 0 .379.069.528.208.16.139.24.304.24.496 0 .107-.021.208-.064.304l-4.448 9.44c-.064.149-.16.261-.288.336a.64.64 0 0 1-.384.128c-.192 0-.368-.064-.528-.192-.149-.128-.224-.288-.224-.48a.88.88 0 0 1 .08-.32l1.104-2.352-3.088-6.56a.63.63 0 0 1-.064-.288c0-.203.085-.373.256-.512a.89.89 0 0 1 .576-.208c.32 0 .549.149.688.448l2.48 5.504 2.464-5.488z" class="B"/><path d="M172.668 273.096c-.808 0-1.512-.172-2.112-.516-.6-.352-1.06-.852-1.38-1.5-.32-.656-.48-1.428-.48-2.316 0-.88.16-1.644.48-2.292.32-.656.78-1.156 1.38-1.5.6-.352 1.304-.528 2.112-.528a4.44 4.44 0 0 1 1.5.252c.472.16.884.396 1.236.708a.58.58 0 0 1 .228.48c0 .144-.04.268-.12.372-.08.096-.176.144-.288.144-.136 0-.268-.052-.396-.156-.384-.288-.736-.488-1.056-.6a2.96 2.96 0 0 0-1.068-.18c-.88 0-1.556.284-2.028.852s-.708 1.384-.708 2.448c0 1.072.236 1.892.708 2.46s1.148.852 2.028.852c.384 0 .732-.06 1.044-.18.32-.12.68-.32 1.08-.6.16-.104.292-.156.396-.156.112 0 .208.052.288.156.08.096.12.216.12.36a.58.58 0 0 1-.228.48c-.352.312-.764.552-1.236.72a4.64 4.64 0 0 1-1.5.24zm4.905-.036c-.176 0-.324-.048-.444-.144-.112-.096-.168-.24-.168-.432v-7.416c0-.192.056-.336.168-.432.12-.104.268-.156.444-.156a.61.61 0 0 1 .432.156c.112.096.168.24.168.432v7.416c0 .192-.056.336-.168.432a.64.64 0 0 1-.432.144zm4.754-6.06c.776 0 1.352.196 1.728.588.384.392.576.988.576 1.788v3.108c0 .184-.052.328-.156.432-.104.096-.248.144-.432.144-.176 0-.316-.052-.42-.156s-.156-.244-.156-.42v-.444c-.152.336-.38.596-.684.78-.296.176-.644.264-1.044.264a2.43 2.43 0 0 1-1.056-.228c-.312-.16-.56-.376-.744-.648a1.61 1.61 0 0 1-.276-.924c-.008-.432.1-.768.324-1.008.224-.248.588-.424 1.092-.528.504-.112 1.204-.168 2.1-.168h.276v-.348c0-.448-.092-.772-.276-.972s-.48-.3-.888-.3c-.28 0-.544.036-.792.108s-.52.176-.816.312c-.216.12-.368.18-.456.18a.39.39 0 0 1-.3-.132c-.072-.088-.108-.2-.108-.336 0-.12.032-.224.096-.312.072-.096.184-.188.336-.276a3.94 3.94 0 0 1 .984-.36 4.41 4.41 0 0 1 1.092-.144zm-.372 5.184c.44 0 .8-.148 1.08-.444.28-.304.42-.692.42-1.164v-.312h-.216c-.624 0-1.104.028-1.44.084s-.576.152-.72.288c-.144.128-.216.316-.216.564a.9.9 0 0 0 .312.708c.208.184.468.276.78.276zm6.374.9c-.816 0-1.484-.168-2.004-.504-.144-.088-.248-.18-.312-.276a.63.63 0 0 1-.084-.324c0-.128.036-.236.108-.324a.34.34 0 0 1 .276-.132c.104 0 .268.064.492.192.24.128.472.232.696.312.232.08.52.12.864.12.384 0 .684-.068.9-.204s.324-.328.324-.576c0-.16-.044-.288-.132-.384-.08-.096-.224-.18-.432-.252-.208-.08-.516-.164-.924-.252-.704-.152-1.212-.356-1.524-.612-.304-.264-.456-.62-.456-1.068a1.52 1.52 0 0 1 .3-.924 1.93 1.93 0 0 1 .828-.648 3 3 0 0 1 1.2-.228 3.35 3.35 0 0 1 .936.132c.304.08.572.2.804.36.264.176.396.38.396.612 0 .128-.04.236-.12.324a.33.33 0 0 1-.264.132.53.53 0 0 1-.216-.048 2.85 2.85 0 0 1-.288-.156c-.216-.128-.42-.228-.612-.3-.184-.072-.416-.108-.696-.108-.336 0-.608.072-.816.216-.2.144-.3.34-.3.588a.61.61 0 0 0 .276.528c.192.12.548.236 1.068.348.536.112.956.24 1.26.384s.52.324.648.54c.136.208.204.476.204.804 0 .52-.22.94-.66 1.26-.432.312-1.012.468-1.74.468zm5.789 0c-.816 0-1.484-.168-2.004-.504-.144-.088-.248-.18-.312-.276a.63.63 0 0 1-.084-.324c0-.128.036-.236.108-.324a.34.34 0 0 1 .276-.132c.104 0 .268.064.492.192.24.128.472.232.696.312.232.08.52.12.864.12.384 0 .684-.068.9-.204s.324-.328.324-.576c0-.16-.044-.288-.132-.384-.08-.096-.224-.18-.432-.252-.208-.08-.516-.164-.924-.252-.704-.152-1.212-.356-1.524-.612-.304-.264-.456-.62-.456-1.068a1.52 1.52 0 0 1 .3-.924 1.93 1.93 0 0 1 .828-.648 3 3 0 0 1 1.2-.228 3.35 3.35 0 0 1 .936.132c.304.08.572.2.804.36.264.176.396.38.396.612 0 .128-.04.236-.12.324a.33.33 0 0 1-.264.132.53.53 0 0 1-.216-.048 2.85 2.85 0 0 1-.288-.156c-.216-.128-.42-.228-.612-.3-.184-.072-.416-.108-.696-.108-.336 0-.608.072-.816.216-.2.144-.3.34-.3.588a.61.61 0 0 0 .276.528c.192.12.548.236 1.068.348.536.112.956.24 1.26.384s.52.324.648.54c.136.208.204.476.204.804 0 .52-.22.94-.66 1.26-.432.312-1.012.468-1.74.468z" class="C"/><path d="M57.552 289.072c.139-.299.368-.448.688-.448.213 0 .405.075.576.224.171.139.256.309.256.512 0 .075-.027.176-.08.304l-4.512 9.888c-.075.171-.192.304-.352.4a.98.98 0 0 1-.512.144c-.181 0-.357-.048-.528-.144-.16-.096-.277-.229-.352-.4l-4.496-9.888c-.053-.128-.08-.229-.08-.304a.65.65 0 0 1 .256-.528c.181-.139.379-.208.592-.208.331 0 .565.149.704.448l3.92 8.784 3.92-8.784zM61.331 300c-.245 0-.443-.069-.592-.208-.139-.139-.208-.325-.208-.56v-9.76c0-.245.075-.443.224-.592.149-.16.347-.24.592-.24.256 0 .459.075.608.224s.224.352.224.608v9.152h4.864c.245 0 .432.059.56.176.139.117.208.288.208.512s-.069.395-.208.512c-.128.117-.315.176-.56.176h-5.712zm13.053-11.072c.149-.192.336-.288.56-.288.192 0 .363.08.512.24.16.149.24.325.24.528 0 .192-.064.357-.192.496l-3.776 4.704v4.64c0 .267-.08.475-.24.624-.149.139-.347.208-.592.208s-.443-.069-.592-.208c-.149-.149-.224-.357-.224-.624v-4.64l-3.776-4.704c-.128-.139-.192-.309-.192-.512a.72.72 0 0 1 .224-.528c.149-.149.325-.224.528-.224.213 0 .4.096.56.288l3.488 4.384 3.472-4.384zm9.349 9.712c.256 0 .448.059.576.176s.192.283.192.496c0 .459-.256.688-.768.688h-5.344c-.523 0-.784-.229-.784-.688 0-.213.064-.379.192-.496.139-.117.336-.176.592-.176h1.84v-7.984l-1.648 1.04c-.107.064-.213.096-.32.096a.62.62 0 0 1-.48-.24c-.128-.16-.192-.341-.192-.544a.65.65 0 0 1 .32-.576l2.464-1.568c.245-.149.48-.224.704-.224a.78.78 0 0 1 .576.224c.149.149.224.352.224.608v9.168h1.856zm9.706-9.92c.235 0 .411.064.528.192a.67.67 0 0 1 .192.496c0 .192-.059.395-.176.608l-5.232 9.664c-.171.299-.405.448-.704.448-.203 0-.389-.069-.56-.208-.16-.149-.24-.331-.24-.544 0-.128.043-.277.128-.448l4.816-8.848h-5.2c-.256 0-.448-.059-.576-.176s-.192-.283-.192-.496c0-.459.256-.688.768-.688h6.448zm5.994-.128c1.398 0 2.47.48 3.216 1.44.758.949 1.136 2.309 1.136 4.08 0 1.248-.176 2.325-.528 3.232-.352.896-.858 1.584-1.52 2.064s-1.445.72-2.352.72c-.608 0-1.216-.112-1.824-.336s-1.125-.533-1.552-.928c-.213-.181-.32-.395-.32-.64 0-.192.053-.352.16-.48.107-.139.235-.208.384-.208.096 0 .181.016.256.048.085.032.181.085.288.16.896.693 1.749 1.04 2.56 1.04.886 0 1.574-.405 2.064-1.216.491-.821.736-1.963.736-3.424v-.032c-.234.544-.618.976-1.152 1.296a3.42 3.42 0 0 1-1.776.464c-.672 0-1.275-.149-1.808-.448a3.27 3.27 0 0 1-1.248-1.28c-.288-.544-.432-1.168-.432-1.872s.16-1.333.48-1.888a3.37 3.37 0 0 1 1.312-1.312c.565-.32 1.205-.48 1.92-.48zm.08 5.936c.672 0 1.216-.208 1.632-.624.427-.427.64-.981.64-1.664 0-.693-.208-1.248-.624-1.664-.416-.427-.965-.64-1.648-.64-.661 0-1.195.213-1.6.64-.395.416-.592.971-.592 1.664 0 .683.197 1.237.592 1.664.405.416.939.624 1.6.624z" class="B"/><path d="M49.596 273.06a.6.6 0 0 1-.444-.168c-.112-.12-.168-.272-.168-.456v-7.296c0-.184.052-.328.156-.432.112-.112.264-.168.456-.168h4.296c.384 0 .576.168.576.504s-.192.504-.576.504h-3.684v2.652h3.444c.384 0 .576.168.576.504s-.192.504-.576.504h-3.444v3.228c0 .192-.056.344-.168.456-.104.112-.252.168-.444.168zm7.063 0c-.176 0-.324-.048-.444-.144-.112-.096-.168-.24-.168-.432v-7.416c0-.192.056-.336.168-.432.12-.104.268-.156.444-.156a.61.61 0 0 1 .432.156c.112.096.168.24.168.432v7.416c0 .192-.056.336-.168.432a.64.64 0 0 1-.432.144zm2.906 0c-.176 0-.324-.048-.444-.144-.112-.096-.168-.24-.168-.432v-4.872c0-.192.056-.336.168-.432.12-.104.268-.156.444-.156a.61.61 0 0 1 .432.156c.112.096.168.24.168.432v4.872c0 .192-.056.336-.168.432a.64.64 0 0 1-.432.144zm0-7.212c-.232 0-.416-.064-.552-.192a.66.66 0 0 1-.204-.504c0-.208.068-.372.204-.492.136-.128.32-.192.552-.192.224 0 .404.064.54.192.144.12.216.284.216.492a.66.66 0 0 1-.204.504c-.136.128-.32.192-.552.192zm7.142 1.176a.56.56 0 0 1 .432.168c.112.104.168.244.168.42v4.92c0 .896-.24 1.572-.72 2.028-.472.456-1.172.684-2.1.684-.864 0-1.584-.164-2.16-.492-.296-.168-.444-.368-.444-.6 0-.136.036-.248.108-.336.08-.088.176-.132.288-.132.104 0 .268.06.492.18a5.48 5.48 0 0 0 .804.312c.248.08.544.12.888.12 1.104 0 1.656-.556 1.656-1.668v-.924c-.168.352-.424.628-.768.828-.344.192-.744.288-1.2.288-.512 0-.968-.12-1.368-.36a2.46 2.46 0 0 1-.936-1.02c-.216-.44-.324-.948-.324-1.524s.112-1.084.336-1.524.532-.78.924-1.02c.4-.248.856-.372 1.368-.372.448 0 .84.096 1.176.288.344.192.604.464.78.816v-.504c0-.176.052-.316.156-.42.112-.104.26-.156.444-.156zm-2.268 4.836c.52 0 .928-.172 1.224-.516s.444-.82.444-1.428c0-.6-.148-1.072-.444-1.416-.288-.352-.696-.528-1.224-.528s-.944.172-1.248.516c-.296.344-.444.82-.444 1.428s.152 1.084.456 1.428.716.516 1.236.516zm7.725-4.86c1.392 0 2.088.788 2.088 2.364v3.12c0 .176-.056.316-.168.42s-.26.156-.444.156-.332-.052-.444-.156c-.104-.104-.156-.244-.156-.42v-3.108c0-.48-.1-.832-.3-1.056-.192-.224-.496-.336-.912-.336-.488 0-.88.152-1.176.456s-.444.712-.444 1.224v2.82c0 .176-.056.316-.168.42-.104.104-.248.156-.432.156s-.332-.052-.444-.156-.168-.244-.168-.42v-7.428c0-.176.056-.316.168-.42a.67.67 0 0 1 .456-.156c.176 0 .316.052.42.156.112.096.168.228.168.396v3c.2-.336.468-.592.804-.768s.72-.264 1.152-.264zm6.614 5.136c.176.016.3.064.372.144.08.072.12.176.12.312 0 .16-.064.284-.192.372-.12.08-.3.112-.54.096l-.324-.024c-.648-.048-1.132-.244-1.452-.588-.32-.352-.48-.868-.48-1.548v-2.82h-.72c-.352 0-.528-.156-.528-.468 0-.144.044-.256.132-.336.096-.088.228-.132.396-.132h.72v-1.236c0-.184.052-.328.156-.432.112-.104.26-.156.444-.156s.332.052.444.156a.56.56 0 0 1 .168.432v1.236h1.188c.168 0 .296.044.384.132.096.08.144.192.144.336 0 .152-.048.268-.144.348-.088.08-.216.12-.384.12h-1.188v2.904c0 .376.076.652.228.828.16.176.4.276.72.3l.336.024zm11.031-7.656c.176 0 .316.06.42.18a.6.6 0 0 1 .168.444v7.332c0 .184-.056.336-.168.456-.112.112-.256.168-.432.168a.55.55 0 0 1-.48-.24l-4.704-6.204v5.82c0 .184-.056.336-.168.456-.104.112-.244.168-.42.168s-.316-.056-.42-.168-.156-.264-.156-.456v-7.332a.6.6 0 0 1 .168-.444c.112-.12.256-.18.432-.18a.55.55 0 0 1 .48.24l4.704 6.216v-5.832c0-.184.052-.332.156-.444.104-.12.244-.18.42-.18zm6.95 2.544c.184 0 .328.052.432.156a.56.56 0 0 1 .168.432v4.884a.53.53 0 0 1-.168.408c-.112.104-.26.156-.444.156-.168 0-.304-.048-.408-.144-.104-.104-.156-.24-.156-.408v-.456a1.87 1.87 0 0 1-.768.768c-.32.176-.68.264-1.08.264-1.424 0-2.136-.784-2.136-2.352v-3.12c0-.184.052-.328.156-.432.112-.104.264-.156.456-.156.184 0 .328.052.432.156a.56.56 0 0 1 .168.432v3.108c0 .472.096.82.288 1.044s.488.336.888.336c.472 0 .848-.152 1.128-.456.288-.304.432-.708.432-1.212v-2.82c0-.176.056-.316.168-.42a.6.6 0 0 1 .444-.168zm9.016-.024c1.312 0 1.968.788 1.968 2.364v3.12a.56.56 0 0 1-.168.432c-.112.096-.26.144-.444.144a.64.64 0 0 1-.432-.144.56.56 0 0 1-.168-.432v-3.108c0-.488-.088-.84-.264-1.056-.176-.224-.452-.336-.828-.336-.44 0-.788.152-1.044.456-.256.296-.384.704-.384 1.224v2.82a.56.56 0 0 1-.168.432c-.112.096-.26.144-.444.144a.64.64 0 0 1-.432-.144.56.56 0 0 1-.168-.432v-3.108c0-.488-.088-.84-.264-1.056-.176-.224-.452-.336-.828-.336-.44 0-.792.152-1.056.456-.256.296-.384.704-.384 1.224v2.82a.56.56 0 0 1-.168.432c-.112.096-.256.144-.432.144s-.324-.048-.444-.144a.56.56 0 0 1-.168-.432V267.6c0-.176.06-.316.18-.42s.264-.156.432-.156.304.052.408.156c.112.096.168.232.168.408v.444c.176-.336.42-.592.732-.768a2.16 2.16 0 0 1 1.08-.264c.448 0 .816.092 1.104.276.296.184.516.468.66.852.176-.344.436-.616.78-.816.344-.208.736-.312 1.176-.312zm6.772 0c.512 0 .964.124 1.356.372a2.46 2.46 0 0 1 .912 1.056c.224.456.336.988.336 1.596 0 .6-.112 1.132-.336 1.596-.216.464-.524.824-.924 1.08-.392.256-.84.384-1.344.384-.44 0-.828-.092-1.164-.276-.336-.192-.592-.464-.768-.816v.48c0 .176-.056.32-.168.432-.104.104-.248.156-.432.156s-.332-.052-.444-.156c-.112-.112-.168-.256-.168-.432v-7.416c0-.176.056-.316.168-.42a.67.67 0 0 1 .456-.156c.176 0 .316.052.42.156.112.096.168.228.168.396v3.072c.176-.352.432-.624.768-.816s.724-.288 1.164-.288zm-.288 5.124c.52 0 .924-.184 1.212-.552.296-.368.444-.884.444-1.548 0-.656-.144-1.16-.432-1.512-.288-.36-.696-.54-1.224-.54s-.936.18-1.224.54c-.28.36-.42.872-.42 1.536s.14 1.176.42 1.536c.288.36.696.54 1.224.54zm8.817-.6a.34.34 0 0 1 .276.132c.072.088.108.2.108.336 0 .232-.144.428-.432.588-.28.16-.588.284-.924.372-.328.088-.644.132-.948.132-.928 0-1.66-.268-2.196-.804-.536-.544-.804-1.284-.804-2.22 0-.6.116-1.132.348-1.596.24-.464.572-.824.996-1.08.432-.256.92-.384 1.464-.384.784 0 1.404.252 1.86.756s.684 1.184.684 2.04c0 .32-.144.48-.432.48h-3.708c.08 1.24.676 1.86 1.788 1.86.296 0 .552-.04.768-.12s.444-.184.684-.312c.024-.016.088-.048.192-.096.112-.056.204-.084.276-.084zm-2.088-3.636c-.464 0-.836.148-1.116.444s-.448.712-.504 1.248h3.096c-.024-.544-.164-.96-.42-1.248-.248-.296-.6-.444-1.056-.444zm6.928-.864c.384-.024.576.14.576.492 0 .176-.044.308-.132.396s-.24.14-.456.156l-.36.036c-.504.048-.88.224-1.128.528-.24.304-.36.672-.36 1.104v2.748c0 .192-.056.336-.168.432a.64.64 0 0 1-.432.144c-.176 0-.324-.048-.444-.144-.112-.096-.168-.24-.168-.432V267.6c0-.184.056-.324.168-.42.12-.104.268-.156.444-.156.16 0 .292.052.396.156.112.096.168.232.168.408v.576c.16-.352.392-.62.696-.804s.648-.292 1.032-.324l.168-.012z" class="C"/><path d="M327 237H48" stroke="#eceefe" class="D E"/><path d="M160.976 204.792c.256.304.384.608.384.912 0 .384-.152.72-.456 1.008a1.38 1.38 0 0 1-1.008.432c-.4 0-.752-.176-1.056-.528l-4.872-6.048-4.896 6.048c-.288.336-.632.504-1.032.504-.384 0-.728-.136-1.032-.408a1.38 1.38 0 0 1-.432-1.008c0-.32.12-.624.36-.912l5.232-6.384-5.016-6.12c-.24-.256-.36-.56-.36-.912 0-.384.144-.712.432-.984a1.38 1.38 0 0 1 1.008-.432c.4 0 .752.176 1.056.528l4.68 5.784 4.68-5.784c.288-.352.632-.528 1.032-.528a1.38 1.38 0 0 1 1.008.432c.304.272.456.6.456.984 0 .352-.12.656-.36.912l-5.016 6.12 5.208 6.384zm13.228-14.304c.288-.352.632-.528 1.032-.528.368 0 .696.144.984.432.288.272.432.6.432.984 0 .32-.12.624-.36.912l-5.448 6.648v6.648c0 .496-.144.88-.432 1.152s-.656.408-1.104.408c-.464 0-.84-.136-1.128-.408s-.432-.656-.432-1.152v-6.648l-5.448-6.648c-.24-.288-.36-.592-.36-.912 0-.384.144-.712.432-.984.288-.288.616-.432.984-.432.4 0 .744.176 1.032.528l4.92 6.096 4.896-6.096zm15.025 14.04c.96 0 1.44.408 1.44 1.224 0 .832-.48 1.248-1.44 1.248h-10.224c-.416 0-.752-.12-1.008-.36-.24-.256-.36-.576-.36-.96s.128-.752.384-1.104l8.592-12.024h-7.512c-.96 0-1.44-.408-1.44-1.224 0-.832.48-1.248 1.44-1.248h9.912c.416 0 .744.128.984.384.256.24.384.544.384.912s-.136.736-.408 1.104l-8.592 12.048h7.848z" fill="#0a2c4b"/><path d="M214.054 205.872a.9.9 0 0 1 .096.408.75.75 0 0 1-.288.6c-.176.16-.392.24-.648.24-.4 0-.68-.192-.84-.576l-1.704-3.888h-9.048l-1.728 3.888c-.16.384-.44.576-.84.576-.256 0-.48-.08-.672-.24a.82.82 0 0 1-.288-.624.85.85 0 0 1 .096-.384l6.864-15.264c.096-.224.24-.392.432-.504s.4-.168.624-.168a1.14 1.14 0 0 1 .648.192 1.05 1.05 0 0 1 .432.48l6.864 15.264zm-11.712-4.848h7.608l-3.816-8.616-3.792 8.616zm15.278 6.096c-.288 0-.528-.08-.72-.24-.176-.176-.264-.416-.264-.72v-10.128c0-.304.088-.536.264-.696.192-.176.432-.264.72-.264s.52.088.696.264c.176.16.264.392.264.696v10.128c0 .32-.088.56-.264.72s-.408.24-.696.24zm0-14.568c-.384 0-.696-.112-.936-.336s-.36-.52-.36-.888c0-.352.12-.64.36-.864s.552-.336.936-.336.696.112.936.336.36.512.36.864c0 .368-.12.664-.36.888s-.552.336-.936.336zm10.378 2.52c.672-.048 1.008.224 1.008.816 0 .256-.072.464-.216.624-.144.144-.392.232-.744.264l-.72.072c-1.072.096-1.872.48-2.4 1.152-.512.656-.768 1.432-.768 2.328v5.832c0 .32-.088.56-.264.72s-.408.24-.696.24-.528-.08-.72-.24c-.176-.176-.264-.416-.264-.72v-10.128c0-.304.096-.536.288-.696.192-.176.424-.264.696-.264a.88.88 0 0 1 .648.264c.176.16.264.384.264.672v1.344c.336-.704.808-1.24 1.416-1.608.624-.368 1.336-.584 2.136-.648l.336-.024z" fill="#666"/><path d="M287.23 132c-.224 0-.401-.061-.532-.182-.121-.131-.182-.303-.182-.518v-8.47c0-.215.061-.383.182-.504.131-.131.308-.196.532-.196h2.744c1.596 0 2.833.429 3.71 1.288s1.316 2.072 1.316 3.64-.438 2.786-1.316 3.654c-.877.859-2.114 1.288-3.71 1.288h-2.744zm2.66-1.204c2.427 0 3.64-1.246 3.64-3.738 0-2.483-1.213-3.724-3.64-3.724h-1.932v7.462h1.932zm12.392-.518c.13 0 .238.051.322.154s.126.233.126.392c0 .271-.168.499-.504.686-.327.187-.686.331-1.078.434-.383.103-.752.154-1.106.154-1.083 0-1.937-.313-2.562-.938-.626-.635-.938-1.498-.938-2.59 0-.7.135-1.321.406-1.862a3.1 3.1 0 0 1 1.162-1.26c.504-.299 1.073-.448 1.708-.448.914 0 1.638.294 2.17.882s.798 1.381.798 2.38c0 .373-.168.56-.504.56h-4.326c.093 1.447.788 2.17 2.086 2.17a2.59 2.59 0 0 0 .896-.14c.252-.093.518-.215.798-.364.028-.019.102-.056.224-.112.13-.065.238-.098.322-.098zm-2.436-4.242c-.542 0-.976.173-1.302.518s-.523.831-.588 1.456h3.612c-.028-.635-.192-1.12-.49-1.456-.29-.345-.7-.518-1.232-.518zm5.352 6.034c-.205 0-.378-.056-.518-.168-.131-.112-.196-.28-.196-.504v-8.652c0-.224.065-.392.196-.504.14-.121.313-.182.518-.182s.373.061.504.182c.131.112.196.28.196.504v8.652c0 .224-.065.392-.196.504s-.299.168-.504.168zm6.513-7.07c1.624 0 2.436.919 2.436 2.758v3.64c0 .205-.066.369-.196.49s-.304.182-.518.182a.73.73 0 0 1-.518-.182c-.122-.121-.182-.285-.182-.49v-3.626c0-.56-.117-.971-.35-1.232-.224-.261-.579-.392-1.064-.392-.57 0-1.027.177-1.372.532s-.518.831-.518 1.428v3.29c0 .205-.066.369-.196.49-.122.121-.29.182-.504.182a.73.73 0 0 1-.518-.182c-.131-.121-.196-.285-.196-.49v-8.666c0-.205.065-.369.196-.49.14-.121.317-.182.532-.182.205 0 .368.061.49.182.13.112.196.266.196.462v3.5c.233-.392.546-.691.938-.896s.84-.308 1.344-.308zm5.224 7.07c-.205 0-.378-.056-.518-.168-.131-.112-.196-.28-.196-.504v-5.684c0-.224.065-.392.196-.504.14-.121.313-.182.518-.182s.373.061.504.182c.131.112.196.28.196.504v5.684c0 .224-.065.392-.196.504s-.299.168-.504.168zm0-8.414c-.271 0-.485-.075-.644-.224s-.238-.345-.238-.588.079-.434.238-.574c.159-.149.373-.224.644-.224.261 0 .471.075.63.224.168.14.252.331.252.574s-.079.439-.238.588-.373.224-.644.224z" fill="#7e7e7e"/><path d="M281.377 108c-.56 0-.992-.152-1.296-.456s-.456-.736-.456-1.296V92.832c0-.56.152-.992.456-1.296s.736-.456 1.296-.456h4.824c1.84 0 3.424.336 4.752 1.008s2.344 1.64 3.048 2.904 1.056 2.776 1.056 4.536-.352 3.28-1.056 4.56c-.688 1.264-1.696 2.232-3.024 2.904s-2.92 1.008-4.776 1.008h-4.824zm4.56-3.024c3.6 0 5.4-1.816 5.4-5.448 0-3.616-1.8-5.424-5.4-5.424h-2.568v10.872h2.568zM299.682 108c-.56 0-.992-.152-1.296-.456s-.456-.736-.456-1.296V92.832c0-.56.152-.992.456-1.296s.736-.456 1.296-.456h8.496c1.184 0 1.776.48 1.776 1.44 0 .976-.592 1.464-1.776 1.464h-6.6v3.96h6.12c1.184 0 1.776.488 1.776 1.464 0 .96-.592 1.44-1.776 1.44h-6.12v4.248h6.6c1.184 0 1.776.488 1.776 1.464 0 .96-.592 1.44-1.776 1.44h-8.496zm14.227 0c-.56 0-.992-.152-1.296-.456s-.456-.736-.456-1.296v-13.44c0-.56.168-1.008.504-1.344s.792-.504 1.368-.504 1.032.168 1.368.504.504.784.504 1.344v12.144h6.144c1.168 0 1.752.512 1.752 1.536 0 1.008-.584 1.512-1.752 1.512h-8.136z" fill="#000"/><path d="M216 99h48" stroke="#000" stroke-width="1.4" class="D E F"/><path fill-rule="evenodd" d="M190.28 105c.24 0 .46-.127.593-.327L194 99.667h3.667a1 1 0 1 0 0-2H194l-3.127-5.007c-.126-.2-.353-.327-.593-.327a.7.7 0 0 0-.667.907L191 97.667h-3.667l-.9-1.2a.32.32 0 0 0-.266-.133h-.394c-.22 0-.38.213-.32.427l.547 1.907-.547 1.906c-.06.214.1.427.32.427h.394a.32.32 0 0 0 .266-.133l.9-1.2H191l-1.387 4.426a.7.7 0 0 0 .667.907z" fill="#d79ff9"/><path d="M120 99h48" stroke="#000" stroke-width="1.4" class="D E F"/><path d="M55.277 126.918c.569.159 1.008.443 1.316.854.317.411.476.924.476 1.54 0 .849-.294 1.512-.882 1.988-.579.467-1.391.7-2.436.7h-3.57c-.224 0-.401-.061-.532-.182-.121-.131-.182-.303-.182-.518v-8.47c0-.215.061-.383.182-.504.131-.131.308-.196.532-.196h3.416c1.017 0 1.811.229 2.38.686.579.448.868 1.078.868 1.89 0 .523-.14.975-.42 1.358-.271.383-.653.667-1.148.854zm-4.396-.518h2.492c1.381 0 2.072-.523 2.072-1.568 0-.523-.173-.91-.518-1.162-.336-.252-.854-.378-1.554-.378h-2.492v3.108zm2.716 4.438c.719 0 1.246-.131 1.582-.392s.504-.667.504-1.218c0-.56-.173-.975-.518-1.246-.336-.28-.859-.42-1.568-.42h-2.716v3.276h2.716zm10.678-.56c.131 0 .238.051.322.154s.126.233.126.392c0 .271-.168.499-.504.686-.327.187-.686.331-1.078.434a4.25 4.25 0 0 1-1.106.154c-1.083 0-1.937-.313-2.562-.938-.625-.635-.938-1.498-.938-2.59 0-.7.135-1.321.406-1.862.28-.541.667-.961 1.162-1.26.504-.299 1.073-.448 1.708-.448.915 0 1.638.294 2.17.882s.798 1.381.798 2.38c0 .373-.168.56-.504.56h-4.326c.093 1.447.789 2.17 2.086 2.17.345 0 .644-.047.896-.14s.518-.215.798-.364c.028-.019.103-.056.224-.112.131-.065.238-.098.322-.098zm-2.436-4.242c-.541 0-.975.173-1.302.518s-.523.831-.588 1.456h3.612c-.028-.635-.191-1.12-.49-1.456-.289-.345-.7-.518-1.232-.518zm8.32-1.036c1.633 0 2.45.919 2.45 2.758v3.64c0 .215-.065.383-.196.504-.121.112-.294.168-.518.168-.215 0-.387-.061-.518-.182-.121-.121-.182-.285-.182-.49v-3.57c0-.579-.117-1.003-.35-1.274-.224-.271-.579-.406-1.064-.406-.569 0-1.027.177-1.372.532s-.518.831-.518 1.428v3.29c0 .205-.065.369-.196.49-.121.121-.289.182-.504.182s-.387-.061-.518-.182-.196-.285-.196-.49V125.7c0-.196.065-.355.196-.476a.73.73 0 0 1 .518-.196c.205 0 .369.061.49.182s.182.28.182.476v.574a2.27 2.27 0 0 1 .938-.938 2.83 2.83 0 0 1 1.358-.322zm10.18.028c.215 0 .383.065.504.196.131.121.196.285.196.49v5.74c0 1.045-.28 1.834-.84 2.366-.551.532-1.367.798-2.45.798-1.008 0-1.848-.191-2.52-.574-.345-.196-.518-.429-.518-.7 0-.159.042-.289.126-.392.093-.103.205-.154.336-.154.121 0 .313.07.574.21.336.159.649.28.938.364.289.093.635.14 1.036.14 1.288 0 1.932-.649 1.932-1.946v-1.078a2.18 2.18 0 0 1-.896.966c-.401.224-.868.336-1.4.336-.597 0-1.129-.14-1.596-.42s-.831-.677-1.092-1.19c-.252-.513-.378-1.106-.378-1.778s.131-1.265.392-1.778.621-.91 1.078-1.19c.467-.289.999-.434 1.596-.434.523 0 .98.112 1.372.336.401.224.705.541.91.952v-.588c0-.205.061-.369.182-.49.131-.121.303-.182.518-.182zm-2.646 5.642c.607 0 1.083-.201 1.428-.602s.518-.957.518-1.666c0-.7-.173-1.251-.518-1.652-.336-.411-.812-.616-1.428-.616s-1.101.201-1.456.602c-.345.401-.518.957-.518 1.666s.177 1.265.532 1.666.835.602 1.442.602zM86.02 125c.905 0 1.577.229 2.016.686.448.457.672 1.153.672 2.086v3.626c0 .215-.061.383-.182.504-.121.112-.289.168-.504.168-.205 0-.369-.061-.49-.182s-.182-.285-.182-.49v-.518a2 2 0 0 1-.798.91c-.345.205-.751.308-1.218.308a2.84 2.84 0 0 1-1.232-.266c-.364-.187-.653-.439-.868-.756a1.88 1.88 0 0 1-.322-1.078c-.009-.504.117-.896.378-1.176.261-.289.686-.495 1.274-.616.588-.131 1.405-.196 2.45-.196h.322v-.406c0-.523-.107-.901-.322-1.134s-.56-.35-1.036-.35a3.3 3.3 0 0 0-.924.126 6.91 6.91 0 0 0-.952.364c-.252.14-.429.21-.532.21a.45.45 0 0 1-.35-.154c-.084-.103-.126-.233-.126-.392 0-.14.037-.261.112-.364.084-.112.215-.219.392-.322.327-.177.709-.317 1.148-.42.439-.112.863-.168 1.274-.168zm-.434 6.048c.513 0 .933-.173 1.26-.518.327-.355.49-.807.49-1.358v-.364h-.252c-.728 0-1.288.033-1.68.098s-.672.177-.84.336c-.168.149-.252.369-.252.658 0 .336.121.611.364.826s.546.322.91.322zm5.91 1.022c-.205 0-.378-.056-.518-.168-.131-.112-.196-.28-.196-.504v-8.652c0-.224.065-.392.196-.504.14-.121.313-.182.518-.182s.373.061.504.182c.131.112.196.28.196.504v8.652c0 .224-.065.392-.196.504s-.299.168-.504.168zm8.109-7.042c.215 0 .383.061.504.182.13.121.196.289.196.504v5.698a.62.62 0 0 1-.196.476c-.131.121-.304.182-.518.182-.196 0-.355-.056-.476-.168-.121-.121-.182-.28-.182-.476v-.532a2.18 2.18 0 0 1-.896.896c-.373.205-.793.308-1.26.308-1.661 0-2.492-.915-2.492-2.744v-3.64c0-.215.061-.383.182-.504.131-.121.308-.182.532-.182.215 0 .383.061.504.182.131.121.196.289.196.504v3.626c0 .551.112.957.336 1.218s.569.392 1.036.392c.551 0 .989-.177 1.316-.532.336-.355.504-.826.504-1.414v-3.29c0-.205.065-.369.196-.49.131-.131.303-.196.518-.196zm6.402 0c.448-.028.672.163.672.574 0 .205-.051.359-.154.462s-.28.163-.532.182l-.42.042c-.588.056-1.026.261-1.316.616-.28.355-.42.784-.42 1.288v3.206c0 .224-.065.392-.196.504s-.298.168-.504.168-.378-.056-.518-.168c-.13-.112-.196-.28-.196-.504V125.7c0-.215.066-.378.196-.49.14-.121.313-.182.518-.182.187 0 .341.061.462.182.131.112.196.271.196.476v.672c.187-.411.458-.723.812-.938a2.72 2.72 0 0 1 1.204-.378l.196-.014zm6.975 0c.215 0 .383.061.504.182.131.121.196.289.196.504v5.698c0 .196-.065.355-.196.476a.73.73 0 0 1-.518.182c-.196 0-.354-.056-.476-.168-.121-.121-.182-.28-.182-.476v-.532c-.214.392-.513.691-.896.896-.373.205-.793.308-1.26.308-1.661 0-2.492-.915-2.492-2.744v-3.64c0-.215.061-.383.182-.504.131-.121.308-.182.532-.182.215 0 .383.061.504.182.131.121.196.289.196.504v3.626c0 .551.112.957.336 1.218s.57.392 1.036.392c.551 0 .99-.177 1.316-.532.336-.355.504-.826.504-1.414v-3.29c0-.205.066-.369.196-.49a.7.7 0 0 1 .518-.196z" fill="#7e7e7e"/><path d="M176.024 126.932c.598.168 1.05.457 1.358.868.308.401.462.91.462 1.526 0 .859-.303 1.535-.91 2.03-.597.495-1.409.742-2.436.742a5.26 5.26 0 0 1-1.75-.294c-.55-.196-1.017-.467-1.4-.812a.69.69 0 0 1-.28-.56c0-.168.047-.308.14-.42.094-.121.206-.182.336-.182.14 0 .299.061.476.182.402.299.794.527 1.176.686.392.149.812.224 1.26.224 1.326 0 1.988-.565 1.988-1.694 0-.551-.177-.961-.532-1.232-.345-.28-.872-.42-1.582-.42h-.77c-.177 0-.317-.056-.42-.168-.102-.121-.154-.261-.154-.42 0-.149.052-.28.154-.392.103-.121.243-.182.42-.182h.546c.682 0 1.2-.14 1.554-.42.364-.289.546-.709.546-1.26 0-.485-.149-.863-.448-1.134-.289-.271-.7-.406-1.232-.406-.784 0-1.568.303-2.352.91-.177.121-.336.182-.476.182-.13 0-.242-.056-.336-.168-.093-.121-.14-.266-.14-.434a.69.69 0 0 1 .28-.56c.383-.345.845-.616 1.386-.812a5.02 5.02 0 0 1 1.694-.294c.924 0 1.662.233 2.212.7s.822 1.092.812 1.876a2.54 2.54 0 0 1-.42 1.442c-.28.411-.667.709-1.162.896zm7.597-1.932c1.624 0 2.436.919 2.436 2.758v3.64c0 .205-.065.369-.196.49s-.303.182-.518.182-.387-.061-.518-.182c-.121-.121-.182-.285-.182-.49v-3.626c0-.56-.117-.971-.35-1.232-.224-.261-.579-.392-1.064-.392-.569 0-1.027.177-1.372.532s-.518.831-.518 1.428v3.29c0 .205-.065.369-.196.49-.121.121-.289.182-.504.182s-.387-.061-.518-.182-.196-.285-.196-.49v-8.666c0-.205.065-.369.196-.49.14-.121.317-.182.532-.182.205 0 .369.061.49.182.131.112.196.266.196.462v3.5c.233-.392.546-.691.938-.896s.84-.308 1.344-.308zm11.562 7.112c-1.148 0-2.026-.429-2.632-1.288-.598-.859-.896-2.109-.896-3.752 0-1.652.298-2.907.896-3.766.606-.859 1.484-1.288 2.632-1.288s2.02.429 2.618 1.288c.606.849.91 2.1.91 3.752s-.304 2.907-.91 3.766c-.598.859-1.47 1.288-2.618 1.288zm0-1.162c.718 0 1.246-.313 1.582-.938s.504-1.61.504-2.954-.168-2.324-.504-2.94c-.336-.625-.864-.938-1.582-.938s-1.246.313-1.582.938c-.336.616-.504 1.596-.504 2.94 0 1.335.168 2.319.504 2.954.336.625.863.938 1.582.938zm13.154-5.95c1.531 0 2.296.919 2.296 2.758v3.64c0 .215-.065.383-.196.504-.13.112-.303.168-.518.168-.205 0-.373-.056-.504-.168-.13-.121-.196-.289-.196-.504v-3.626c0-.569-.102-.98-.308-1.232-.205-.261-.527-.392-.966-.392-.513 0-.919.177-1.218.532-.298.345-.448.821-.448 1.428v3.29c0 .215-.065.383-.196.504-.13.112-.303.168-.518.168-.205 0-.373-.056-.504-.168-.13-.121-.196-.289-.196-.504v-3.626c0-.569-.102-.98-.308-1.232-.205-.261-.527-.392-.966-.392-.513 0-.924.177-1.232.532-.298.345-.448.821-.448 1.428v3.29c0 .215-.065.383-.196.504-.13.112-.298.168-.504.168s-.378-.056-.518-.168c-.13-.121-.196-.289-.196-.504V125.7c0-.205.07-.369.21-.49s.308-.182.504-.182.355.061.476.182c.131.112.196.271.196.476v.518c.206-.392.49-.691.854-.896s.784-.308 1.26-.308c.523 0 .952.107 1.288.322.346.215.602.546.77.994.206-.401.509-.719.91-.952.402-.243.859-.364 1.372-.364zM70.552 99.24c.976.288 1.728.792 2.256 1.512.544.704.816 1.576.816 2.616 0 1.424-.528 2.552-1.584 3.384-1.04.832-2.48 1.248-4.32 1.248h-6.288c-.56 0-.992-.152-1.296-.456s-.456-.736-.456-1.296V92.832c0-.56.152-.992.456-1.296s.736-.456 1.296-.456h6.048c1.76 0 3.152.392 4.176 1.176 1.04.784 1.56 1.856 1.56 3.216 0 .88-.24 1.656-.72 2.328-.464.656-1.112 1.136-1.944 1.44zm-7.224-1.272h3.528c.96 0 1.664-.16 2.112-.48.464-.336.696-.84.696-1.512 0-.704-.232-1.216-.696-1.536-.448-.336-1.152-.504-2.112-.504h-3.528v4.032zm3.96 7.176c.992 0 1.712-.168 2.16-.504s.672-.88.672-1.632-.224-1.304-.672-1.656-1.168-.528-2.16-.528h-3.96v4.32h3.96zM77.979 108c-.56 0-.992-.152-1.296-.456s-.456-.736-.456-1.296v-13.44c0-.56.168-1.008.504-1.344s.792-.504 1.368-.504 1.032.168 1.368.504.504.784.504 1.344v12.144h6.144c1.168 0 1.752.512 1.752 1.536 0 1.008-.584 1.512-1.752 1.512h-8.136zm25.643-2.376c.24.352.36.696.36 1.032a1.34 1.34 0 0 1-.552 1.104 1.91 1.91 0 0 1-1.248.432c-.304 0-.6-.072-.888-.216s-.528-.368-.72-.672l-3.168-4.704c-.272-.416-.56-.712-.864-.888-.304-.192-.688-.288-1.152-.288h-1.944v4.848c0 .576-.168 1.032-.504 1.368-.32.336-.76.504-1.32.504-.576 0-1.032-.168-1.368-.504s-.504-.792-.504-1.368v-13.44c0-.56.152-.992.456-1.296s.736-.456 1.296-.456h6.024c1.984 0 3.48.44 4.488 1.32 1.024.864 1.536 2.12 1.536 3.768 0 1.296-.36 2.376-1.08 3.24s-1.736 1.432-3.048 1.704a2.98 2.98 0 0 1 1.272.576c.384.272.752.672 1.104 1.2l1.824 2.736zm-6.648-7.032c1.072 0 1.848-.184 2.328-.552.48-.384.72-.976.72-1.776 0-.816-.24-1.408-.72-1.776s-1.256-.552-2.328-.552h-3.576v4.656h3.576z" fill="#000"/><defs><filter id="A" x="-30" y="0" width="435" height="742" filterUnits="userSpaceOnUse" color-interpolation-filters="sRGB"><feFlood flood-opacity="0" result="A"/><feColorMatrix in="SourceAlpha" values="0 0 0 0 0 0 0 0 0 0 0 0 0 0 0 0 0 0 127 0"/><feOffset dy="7"/><feGaussianBlur stdDeviation="27"/><feColorMatrix values="0 0 0 0 0 0 0 0 0 0 0 0 0 0 0 0 0 0 0.06 0"/><feBlend in2="A"/><feBlend in="SourceGraphic"/></filter></defs></svg>