<svg width="435" height="190" viewBox="0 0 435 190" fill="none" xmlns="http://www.w3.org/2000/svg">
<g filter="url(#filter0_d)">
<rect x="54" y="47" width="327" height="82" rx="24" fill="white"/>
</g>
<path d="M318.23 109.985C318.006 109.985 317.829 109.924 317.698 109.803C317.577 109.672 317.516 109.499 317.516 109.285V100.815C317.516 100.6 317.577 100.432 317.698 100.311C317.829 100.18 318.006 100.115 318.23 100.115H320.974C322.57 100.115 323.807 100.544 324.684 101.403C325.562 102.261 326 103.475 326 105.043C326 106.611 325.562 107.829 324.684 108.697C323.807 109.555 322.57 109.985 320.974 109.985H318.23ZM320.89 108.781C323.317 108.781 324.53 107.535 324.53 105.043C324.53 102.56 323.317 101.319 320.89 101.319H318.958V108.781H320.89ZM333.282 108.263C333.412 108.263 333.52 108.314 333.604 108.417C333.688 108.519 333.73 108.65 333.73 108.809C333.73 109.079 333.562 109.308 333.226 109.495C332.899 109.681 332.54 109.826 332.148 109.929C331.765 110.031 331.396 110.083 331.042 110.083C329.959 110.083 329.105 109.77 328.48 109.145C327.854 108.51 327.542 107.647 327.542 106.555C327.542 105.855 327.677 105.234 327.948 104.693C328.228 104.151 328.615 103.731 329.11 103.433C329.614 103.134 330.183 102.985 330.818 102.985C331.732 102.985 332.456 103.279 332.988 103.867C333.52 104.455 333.786 105.248 333.786 106.247C333.786 106.62 333.618 106.807 333.282 106.807H328.956C329.049 108.253 329.744 108.977 331.042 108.977C331.387 108.977 331.686 108.93 331.938 108.837C332.19 108.743 332.456 108.622 332.736 108.473C332.764 108.454 332.838 108.417 332.96 108.361C333.09 108.295 333.198 108.263 333.282 108.263ZM330.846 104.021C330.304 104.021 329.87 104.193 329.544 104.539C329.217 104.884 329.021 105.369 328.956 105.995H332.568C332.54 105.36 332.376 104.875 332.078 104.539C331.788 104.193 331.378 104.021 330.846 104.021ZM336.198 110.055C335.993 110.055 335.82 109.999 335.68 109.887C335.549 109.775 335.484 109.607 335.484 109.383V100.731C335.484 100.507 335.549 100.339 335.68 100.227C335.82 100.105 335.993 100.045 336.198 100.045C336.403 100.045 336.571 100.105 336.702 100.227C336.833 100.339 336.898 100.507 336.898 100.731V109.383C336.898 109.607 336.833 109.775 336.702 109.887C336.571 109.999 336.403 110.055 336.198 110.055ZM342.711 102.985C344.335 102.985 345.147 103.904 345.147 105.743V109.383C345.147 109.588 345.081 109.751 344.951 109.873C344.82 109.994 344.647 110.055 344.433 110.055C344.218 110.055 344.045 109.994 343.915 109.873C343.793 109.751 343.733 109.588 343.733 109.383V105.757C343.733 105.197 343.616 104.786 343.383 104.525C343.159 104.263 342.804 104.133 342.319 104.133C341.749 104.133 341.292 104.31 340.947 104.665C340.601 105.019 340.429 105.495 340.429 106.093V109.383C340.429 109.588 340.363 109.751 340.233 109.873C340.111 109.994 339.943 110.055 339.729 110.055C339.514 110.055 339.341 109.994 339.211 109.873C339.08 109.751 339.015 109.588 339.015 109.383V100.717C339.015 100.511 339.08 100.348 339.211 100.227C339.351 100.105 339.528 100.045 339.743 100.045C339.948 100.045 340.111 100.105 340.233 100.227C340.363 100.339 340.429 100.493 340.429 100.689V104.189C340.662 103.797 340.975 103.498 341.367 103.293C341.759 103.087 342.207 102.985 342.711 102.985ZM347.935 110.055C347.73 110.055 347.557 109.999 347.417 109.887C347.286 109.775 347.221 109.607 347.221 109.383V103.699C347.221 103.475 347.286 103.307 347.417 103.195C347.557 103.073 347.73 103.013 347.935 103.013C348.14 103.013 348.308 103.073 348.439 103.195C348.57 103.307 348.635 103.475 348.635 103.699V109.383C348.635 109.607 348.57 109.775 348.439 109.887C348.308 109.999 348.14 110.055 347.935 110.055ZM347.935 101.641C347.664 101.641 347.45 101.566 347.291 101.417C347.132 101.267 347.053 101.071 347.053 100.829C347.053 100.586 347.132 100.395 347.291 100.255C347.45 100.105 347.664 100.031 347.935 100.031C348.196 100.031 348.406 100.105 348.565 100.255C348.733 100.395 348.817 100.586 348.817 100.829C348.817 101.071 348.738 101.267 348.579 101.417C348.42 101.566 348.206 101.641 347.935 101.641Z" fill="#7E7E7E"/>
<path d="M312.377 85.9848C311.817 85.9848 311.385 85.8328 311.081 85.5288C310.777 85.2248 310.625 84.7928 310.625 84.2328V70.8168C310.625 70.2568 310.777 69.8248 311.081 69.5208C311.385 69.2168 311.817 69.0648 312.377 69.0648H317.201C319.041 69.0648 320.625 69.4008 321.953 70.0728C323.281 70.7448 324.297 71.7128 325.001 72.9768C325.705 74.2408 326.057 75.7528 326.057 77.5128C326.057 79.2728 325.705 80.7928 325.001 82.0728C324.313 83.3368 323.305 84.3048 321.977 84.9768C320.649 85.6488 319.057 85.9848 317.201 85.9848H312.377ZM316.937 82.9608C320.537 82.9608 322.337 81.1448 322.337 77.5128C322.337 73.8968 320.537 72.0888 316.937 72.0888H314.369V82.9608H316.937ZM330.682 85.9848C330.122 85.9848 329.69 85.8328 329.386 85.5288C329.082 85.2248 328.93 84.7928 328.93 84.2328V70.8168C328.93 70.2568 329.082 69.8248 329.386 69.5208C329.69 69.2168 330.122 69.0648 330.682 69.0648H339.178C340.362 69.0648 340.954 69.5448 340.954 70.5048C340.954 71.4808 340.362 71.9688 339.178 71.9688H332.578V75.9288H338.698C339.882 75.9288 340.474 76.4168 340.474 77.3928C340.474 78.3528 339.882 78.8328 338.698 78.8328H332.578V83.0808H339.178C340.362 83.0808 340.954 83.5688 340.954 84.5448C340.954 85.5048 340.362 85.9848 339.178 85.9848H330.682ZM344.909 85.9848C344.349 85.9848 343.917 85.8328 343.613 85.5288C343.309 85.2248 343.157 84.7928 343.157 84.2328V70.7928C343.157 70.2328 343.325 69.7848 343.661 69.4488C343.997 69.1128 344.453 68.9448 345.029 68.9448C345.605 68.9448 346.061 69.1128 346.397 69.4488C346.733 69.7848 346.901 70.2328 346.901 70.7928V82.9368H353.045C354.213 82.9368 354.797 83.4488 354.797 84.4728C354.797 85.4808 354.213 85.9848 353.045 85.9848H344.909Z" fill="black"/>
<path d="M247 76.9848H295" stroke="black" stroke-width="1.4" stroke-linecap="round" stroke-linejoin="round" stroke-dasharray="1 4"/>
<path fill-rule="evenodd" clip-rule="evenodd" d="M221.28 82.9848C221.52 82.9848 221.74 82.8581 221.873 82.6581L225 77.6514L228.667 77.6514C229.22 77.6514 229.667 77.2048 229.667 76.6514C229.667 76.0981 229.22 75.6514 228.667 75.6514L225 75.6514L221.873 70.6448C221.747 70.4448 221.52 70.3181 221.28 70.3181C220.813 70.3181 220.473 70.7714 220.613 71.2248L222 75.6514L218.333 75.6514L217.433 74.4514C217.373 74.3648 217.273 74.3181 217.167 74.3181L216.773 74.3181C216.553 74.3181 216.393 74.5314 216.453 74.7448L217 76.6514L216.453 78.5581C216.393 78.7714 216.553 78.9848 216.773 78.9848L217.167 78.9848C217.273 78.9848 217.373 78.9381 217.433 78.8514L218.333 77.6514L222 77.6514L220.613 82.0781C220.473 82.5314 220.813 82.9848 221.28 82.9848Z" fill="#D79FF9"/>
<path d="M151 76.9848H199" stroke="black" stroke-width="1.4" stroke-linecap="round" stroke-linejoin="round" stroke-dasharray="1 4"/>
<path d="M86.2769 104.903C86.8462 105.061 87.2849 105.346 87.5929 105.757C87.9102 106.167 88.0689 106.681 88.0689 107.297C88.0689 108.146 87.7749 108.809 87.1869 109.285C86.6082 109.751 85.7962 109.985 84.7509 109.985H81.1809C80.9569 109.985 80.7796 109.924 80.6489 109.803C80.5276 109.672 80.4669 109.499 80.4669 109.285V100.815C80.4669 100.6 80.5276 100.432 80.6489 100.311C80.7796 100.18 80.9569 100.115 81.1809 100.115H84.5969C85.6142 100.115 86.4076 100.343 86.9769 100.801C87.5556 101.249 87.8449 101.879 87.8449 102.691C87.8449 103.213 87.7049 103.666 87.4249 104.049C87.1542 104.431 86.7716 104.716 86.2769 104.903ZM81.8809 104.385H84.3729C85.7542 104.385 86.4449 103.862 86.4449 102.817C86.4449 102.294 86.2722 101.907 85.9269 101.655C85.5909 101.403 85.0729 101.277 84.3729 101.277H81.8809V104.385ZM84.5969 108.823C85.3156 108.823 85.8429 108.692 86.1789 108.431C86.5149 108.169 86.6829 107.763 86.6829 107.213C86.6829 106.653 86.5102 106.237 86.1649 105.967C85.8289 105.687 85.3062 105.547 84.5969 105.547H81.8809V108.823H84.5969ZM95.2752 108.263C95.4059 108.263 95.5132 108.314 95.5972 108.417C95.6812 108.519 95.7232 108.65 95.7232 108.809C95.7232 109.079 95.5552 109.308 95.2192 109.495C94.8925 109.681 94.5332 109.826 94.1412 109.929C93.7585 110.031 93.3899 110.083 93.0352 110.083C91.9525 110.083 91.0985 109.77 90.4732 109.145C89.8479 108.51 89.5352 107.647 89.5352 106.555C89.5352 105.855 89.6705 105.234 89.9412 104.693C90.2212 104.151 90.6085 103.731 91.1032 103.433C91.6072 103.134 92.1765 102.985 92.8112 102.985C93.7259 102.985 94.4492 103.279 94.9812 103.867C95.5132 104.455 95.7792 105.248 95.7792 106.247C95.7792 106.62 95.6112 106.807 95.2752 106.807H90.9492C91.0425 108.253 91.7379 108.977 93.0352 108.977C93.3805 108.977 93.6792 108.93 93.9312 108.837C94.1832 108.743 94.4492 108.622 94.7292 108.473C94.7572 108.454 94.8319 108.417 94.9532 108.361C95.0839 108.295 95.1912 108.263 95.2752 108.263ZM92.8392 104.021C92.2979 104.021 91.8639 104.193 91.5372 104.539C91.2105 104.884 91.0145 105.369 90.9492 105.995H94.5612C94.5332 105.36 94.3699 104.875 94.0712 104.539C93.7819 104.193 93.3712 104.021 92.8392 104.021ZM101.159 102.985C102.793 102.985 103.609 103.904 103.609 105.743V109.383C103.609 109.597 103.544 109.765 103.413 109.887C103.292 109.999 103.119 110.055 102.895 110.055C102.681 110.055 102.508 109.994 102.377 109.873C102.256 109.751 102.195 109.588 102.195 109.383V105.813C102.195 105.234 102.079 104.809 101.845 104.539C101.621 104.268 101.267 104.133 100.781 104.133C100.212 104.133 99.7547 104.31 99.4093 104.665C99.064 105.019 98.8913 105.495 98.8913 106.093V109.383C98.8913 109.588 98.826 109.751 98.6953 109.873C98.574 109.994 98.406 110.055 98.1913 110.055C97.9767 110.055 97.804 109.994 97.6733 109.873C97.5427 109.751 97.4773 109.588 97.4773 109.383V103.685C97.4773 103.489 97.5427 103.33 97.6733 103.209C97.8133 103.078 97.986 103.013 98.1913 103.013C98.3967 103.013 98.56 103.073 98.6813 103.195C98.8027 103.316 98.8633 103.475 98.8633 103.671V104.245C99.0873 103.834 99.4 103.521 99.8013 103.307C100.203 103.092 100.655 102.985 101.159 102.985ZM111.34 103.013C111.554 103.013 111.722 103.078 111.844 103.209C111.974 103.33 112.04 103.493 112.04 103.699V109.439C112.04 110.484 111.76 111.273 111.2 111.805C110.649 112.337 109.832 112.603 108.75 112.603C107.742 112.603 106.902 112.411 106.23 112.029C105.884 111.833 105.712 111.599 105.712 111.329C105.712 111.17 105.754 111.039 105.838 110.937C105.931 110.834 106.043 110.783 106.174 110.783C106.295 110.783 106.486 110.853 106.748 110.993C107.084 111.151 107.396 111.273 107.686 111.357C107.975 111.45 108.32 111.497 108.722 111.497C110.01 111.497 110.654 110.848 110.654 109.551V108.473C110.458 108.883 110.159 109.205 109.758 109.439C109.356 109.663 108.89 109.775 108.358 109.775C107.76 109.775 107.228 109.635 106.762 109.355C106.295 109.075 105.931 108.678 105.67 108.165C105.418 107.651 105.292 107.059 105.292 106.387C105.292 105.715 105.422 105.122 105.684 104.609C105.945 104.095 106.304 103.699 106.762 103.419C107.228 103.129 107.76 102.985 108.358 102.985C108.88 102.985 109.338 103.097 109.73 103.321C110.131 103.545 110.434 103.862 110.64 104.273V103.685C110.64 103.479 110.7 103.316 110.822 103.195C110.952 103.073 111.125 103.013 111.34 103.013ZM108.694 108.655C109.3 108.655 109.776 108.454 110.122 108.053C110.467 107.651 110.64 107.096 110.64 106.387C110.64 105.687 110.467 105.136 110.122 104.735C109.786 104.324 109.31 104.119 108.694 104.119C108.078 104.119 107.592 104.319 107.238 104.721C106.892 105.122 106.72 105.677 106.72 106.387C106.72 107.096 106.897 107.651 107.252 108.053C107.606 108.454 108.087 108.655 108.694 108.655ZM117.02 102.985C117.925 102.985 118.597 103.213 119.036 103.671C119.484 104.128 119.708 104.823 119.708 105.757V109.383C119.708 109.597 119.647 109.765 119.526 109.887C119.405 109.999 119.237 110.055 119.022 110.055C118.817 110.055 118.653 109.994 118.532 109.873C118.411 109.751 118.35 109.588 118.35 109.383V108.865C118.173 109.257 117.907 109.56 117.552 109.775C117.207 109.98 116.801 110.083 116.334 110.083C115.886 110.083 115.475 109.994 115.102 109.817C114.738 109.63 114.449 109.378 114.234 109.061C114.019 108.743 113.912 108.384 113.912 107.983C113.903 107.479 114.029 107.087 114.29 106.807C114.551 106.517 114.976 106.312 115.564 106.191C116.152 106.06 116.969 105.995 118.014 105.995H118.336V105.589C118.336 105.066 118.229 104.688 118.014 104.455C117.799 104.221 117.454 104.105 116.978 104.105C116.651 104.105 116.343 104.147 116.054 104.231C115.765 104.315 115.447 104.436 115.102 104.595C114.85 104.735 114.673 104.805 114.57 104.805C114.43 104.805 114.313 104.753 114.22 104.651C114.136 104.548 114.094 104.417 114.094 104.259C114.094 104.119 114.131 103.997 114.206 103.895C114.29 103.783 114.421 103.675 114.598 103.573C114.925 103.395 115.307 103.255 115.746 103.153C116.185 103.041 116.609 102.985 117.02 102.985ZM116.586 109.033C117.099 109.033 117.519 108.86 117.846 108.515C118.173 108.16 118.336 107.707 118.336 107.157V106.793H118.084C117.356 106.793 116.796 106.825 116.404 106.891C116.012 106.956 115.732 107.068 115.564 107.227C115.396 107.376 115.312 107.595 115.312 107.885C115.312 108.221 115.433 108.496 115.676 108.711C115.919 108.925 116.222 109.033 116.586 109.033ZM122.496 110.055C122.291 110.055 122.118 109.999 121.978 109.887C121.847 109.775 121.782 109.607 121.782 109.383V100.731C121.782 100.507 121.847 100.339 121.978 100.227C122.118 100.105 122.291 100.045 122.496 100.045C122.701 100.045 122.869 100.105 123 100.227C123.131 100.339 123.196 100.507 123.196 100.731V109.383C123.196 109.607 123.131 109.775 123 109.887C122.869 109.999 122.701 110.055 122.496 110.055ZM130.605 103.013C130.819 103.013 130.987 103.073 131.109 103.195C131.239 103.316 131.305 103.484 131.305 103.699V109.397C131.305 109.593 131.239 109.751 131.109 109.873C130.978 109.994 130.805 110.055 130.591 110.055C130.395 110.055 130.236 109.999 130.115 109.887C129.993 109.765 129.933 109.607 129.933 109.411V108.879C129.718 109.271 129.419 109.569 129.037 109.775C128.663 109.98 128.243 110.083 127.777 110.083C126.115 110.083 125.285 109.168 125.285 107.339V103.699C125.285 103.484 125.345 103.316 125.467 103.195C125.597 103.073 125.775 103.013 125.999 103.013C126.213 103.013 126.381 103.073 126.503 103.195C126.633 103.316 126.699 103.484 126.699 103.699V107.325C126.699 107.875 126.811 108.281 127.035 108.543C127.259 108.804 127.604 108.935 128.071 108.935C128.621 108.935 129.06 108.757 129.387 108.403C129.723 108.048 129.891 107.577 129.891 106.989V103.699C129.891 103.493 129.956 103.33 130.087 103.209C130.217 103.078 130.39 103.013 130.605 103.013ZM137.007 103.013C137.455 102.985 137.679 103.176 137.679 103.587C137.679 103.792 137.628 103.946 137.525 104.049C137.423 104.151 137.245 104.212 136.993 104.231L136.573 104.273C135.985 104.329 135.547 104.534 135.257 104.889C134.977 105.243 134.837 105.673 134.837 106.177V109.383C134.837 109.607 134.772 109.775 134.641 109.887C134.511 109.999 134.343 110.055 134.137 110.055C133.932 110.055 133.759 109.999 133.619 109.887C133.489 109.775 133.423 109.607 133.423 109.383V103.685C133.423 103.47 133.489 103.307 133.619 103.195C133.759 103.073 133.932 103.013 134.137 103.013C134.324 103.013 134.478 103.073 134.599 103.195C134.73 103.307 134.795 103.465 134.795 103.671V104.343C134.982 103.932 135.253 103.619 135.607 103.405C135.962 103.19 136.363 103.064 136.811 103.027L137.007 103.013ZM143.982 103.013C144.197 103.013 144.365 103.073 144.486 103.195C144.617 103.316 144.682 103.484 144.682 103.699V109.397C144.682 109.593 144.617 109.751 144.486 109.873C144.356 109.994 144.183 110.055 143.968 110.055C143.772 110.055 143.614 109.999 143.492 109.887C143.371 109.765 143.31 109.607 143.31 109.411V108.879C143.096 109.271 142.797 109.569 142.414 109.775C142.041 109.98 141.621 110.083 141.154 110.083C139.493 110.083 138.662 109.168 138.662 107.339V103.699C138.662 103.484 138.723 103.316 138.844 103.195C138.975 103.073 139.152 103.013 139.376 103.013C139.591 103.013 139.759 103.073 139.88 103.195C140.011 103.316 140.076 103.484 140.076 103.699V107.325C140.076 107.875 140.188 108.281 140.412 108.543C140.636 108.804 140.982 108.935 141.448 108.935C141.999 108.935 142.438 108.757 142.764 108.403C143.1 108.048 143.268 107.577 143.268 106.989V103.699C143.268 103.493 143.334 103.33 143.464 103.209C143.595 103.078 143.768 103.013 143.982 103.013Z" fill="#7E7E7E"/>
<path d="M207.024 104.917C207.622 105.085 208.074 105.374 208.382 105.785C208.69 106.186 208.844 106.695 208.844 107.311C208.844 108.169 208.541 108.846 207.934 109.341C207.337 109.835 206.525 110.083 205.498 110.083C204.892 110.083 204.308 109.985 203.748 109.789C203.198 109.593 202.731 109.322 202.348 108.977C202.162 108.827 202.068 108.641 202.068 108.417C202.068 108.249 202.115 108.109 202.208 107.997C202.302 107.875 202.414 107.815 202.544 107.815C202.684 107.815 202.843 107.875 203.02 107.997C203.422 108.295 203.814 108.524 204.196 108.683C204.588 108.832 205.008 108.907 205.456 108.907C206.782 108.907 207.444 108.342 207.444 107.213C207.444 106.662 207.267 106.251 206.912 105.981C206.567 105.701 206.04 105.561 205.33 105.561H204.56C204.383 105.561 204.243 105.505 204.14 105.393C204.038 105.271 203.986 105.131 203.986 104.973C203.986 104.823 204.038 104.693 204.14 104.581C204.243 104.459 204.383 104.399 204.56 104.399H205.106C205.788 104.399 206.306 104.259 206.66 103.979C207.024 103.689 207.206 103.269 207.206 102.719C207.206 102.233 207.057 101.855 206.758 101.585C206.469 101.314 206.058 101.179 205.526 101.179C204.742 101.179 203.958 101.482 203.174 102.089C202.997 102.21 202.838 102.271 202.698 102.271C202.568 102.271 202.456 102.215 202.362 102.103C202.269 101.981 202.222 101.837 202.222 101.669C202.222 101.445 202.316 101.258 202.502 101.109C202.885 100.763 203.347 100.493 203.888 100.297C204.439 100.101 205.004 100.003 205.582 100.003C206.506 100.003 207.244 100.236 207.794 100.703C208.345 101.169 208.616 101.795 208.606 102.579C208.606 103.12 208.466 103.601 208.186 104.021C207.906 104.431 207.519 104.73 207.024 104.917ZM214.621 102.985C216.245 102.985 217.057 103.904 217.057 105.743V109.383C217.057 109.588 216.992 109.751 216.861 109.873C216.73 109.994 216.558 110.055 216.343 110.055C216.128 110.055 215.956 109.994 215.825 109.873C215.704 109.751 215.643 109.588 215.643 109.383V105.757C215.643 105.197 215.526 104.786 215.293 104.525C215.069 104.263 214.714 104.133 214.229 104.133C213.66 104.133 213.202 104.31 212.857 104.665C212.512 105.019 212.339 105.495 212.339 106.093V109.383C212.339 109.588 212.274 109.751 212.143 109.873C212.022 109.994 211.854 110.055 211.639 110.055C211.424 110.055 211.252 109.994 211.121 109.873C210.99 109.751 210.925 109.588 210.925 109.383V100.717C210.925 100.511 210.99 100.348 211.121 100.227C211.261 100.105 211.438 100.045 211.653 100.045C211.858 100.045 212.022 100.105 212.143 100.227C212.274 100.339 212.339 100.493 212.339 100.689V104.189C212.572 103.797 212.885 103.498 213.277 103.293C213.669 103.087 214.117 102.985 214.621 102.985ZM226.183 110.097C225.035 110.097 224.157 109.667 223.551 108.809C222.953 107.95 222.655 106.699 222.655 105.057C222.655 103.405 222.953 102.149 223.551 101.291C224.157 100.432 225.035 100.003 226.183 100.003C227.331 100.003 228.203 100.432 228.801 101.291C229.407 102.14 229.711 103.391 229.711 105.043C229.711 106.695 229.407 107.95 228.801 108.809C228.203 109.667 227.331 110.097 226.183 110.097ZM226.183 108.935C226.901 108.935 227.429 108.622 227.765 107.997C228.101 107.371 228.269 106.387 228.269 105.043C228.269 103.699 228.101 102.719 227.765 102.103C227.429 101.477 226.901 101.165 226.183 101.165C225.464 101.165 224.937 101.477 224.601 102.103C224.265 102.719 224.097 103.699 224.097 105.043C224.097 106.377 224.265 107.362 224.601 107.997C224.937 108.622 225.464 108.935 226.183 108.935ZM239.337 102.985C240.868 102.985 241.633 103.904 241.633 105.743V109.383C241.633 109.597 241.568 109.765 241.437 109.887C241.307 109.999 241.134 110.055 240.919 110.055C240.714 110.055 240.546 109.999 240.415 109.887C240.285 109.765 240.219 109.597 240.219 109.383V105.757C240.219 105.187 240.117 104.777 239.911 104.525C239.706 104.263 239.384 104.133 238.945 104.133C238.432 104.133 238.026 104.31 237.727 104.665C237.429 105.01 237.279 105.486 237.279 106.093V109.383C237.279 109.597 237.214 109.765 237.083 109.887C236.953 109.999 236.78 110.055 236.565 110.055C236.36 110.055 236.192 109.999 236.061 109.887C235.931 109.765 235.865 109.597 235.865 109.383V105.757C235.865 105.187 235.763 104.777 235.557 104.525C235.352 104.263 235.03 104.133 234.591 104.133C234.078 104.133 233.667 104.31 233.359 104.665C233.061 105.01 232.911 105.486 232.911 106.093V109.383C232.911 109.597 232.846 109.765 232.715 109.887C232.585 109.999 232.417 110.055 232.211 110.055C232.006 110.055 231.833 109.999 231.693 109.887C231.563 109.765 231.497 109.597 231.497 109.383V103.685C231.497 103.479 231.567 103.316 231.707 103.195C231.847 103.073 232.015 103.013 232.211 103.013C232.407 103.013 232.566 103.073 232.687 103.195C232.818 103.307 232.883 103.465 232.883 103.671V104.189C233.089 103.797 233.373 103.498 233.737 103.293C234.101 103.087 234.521 102.985 234.997 102.985C235.52 102.985 235.949 103.092 236.285 103.307C236.631 103.521 236.887 103.853 237.055 104.301C237.261 103.899 237.564 103.582 237.965 103.349C238.367 103.106 238.824 102.985 239.337 102.985Z" fill="black"/>
<path d="M101.552 77.2248C102.528 77.5128 103.28 78.0168 103.808 78.7368C104.352 79.4408 104.624 80.3128 104.624 81.3528C104.624 82.7768 104.096 83.9048 103.04 84.7368C102 85.5688 100.56 85.9848 98.72 85.9848H92.432C91.872 85.9848 91.44 85.8328 91.136 85.5288C90.832 85.2248 90.68 84.7928 90.68 84.2328V70.8168C90.68 70.2568 90.832 69.8248 91.136 69.5208C91.44 69.2168 91.872 69.0648 92.432 69.0648H98.48C100.24 69.0648 101.632 69.4568 102.656 70.2408C103.696 71.0248 104.216 72.0968 104.216 73.4568C104.216 74.3368 103.976 75.1128 103.496 75.7848C103.032 76.4408 102.384 76.9208 101.552 77.2248ZM94.328 75.9528H97.856C98.816 75.9528 99.52 75.7928 99.968 75.4728C100.432 75.1368 100.664 74.6328 100.664 73.9608C100.664 73.2568 100.432 72.7448 99.968 72.4248C99.52 72.0888 98.816 71.9208 97.856 71.9208H94.328V75.9528ZM98.288 83.1288C99.28 83.1288 100 82.9608 100.448 82.6248C100.896 82.2888 101.12 81.7448 101.12 80.9928C101.12 80.2408 100.896 79.6888 100.448 79.3368C100 78.9848 99.28 78.8088 98.288 78.8088H94.328V83.1288H98.288ZM108.979 85.9848C108.419 85.9848 107.987 85.8328 107.683 85.5288C107.379 85.2248 107.227 84.7928 107.227 84.2328V70.7928C107.227 70.2328 107.395 69.7848 107.731 69.4488C108.067 69.1128 108.523 68.9448 109.099 68.9448C109.675 68.9448 110.131 69.1128 110.467 69.4488C110.803 69.7848 110.971 70.2328 110.971 70.7928V82.9368H117.115C118.283 82.9368 118.867 83.4488 118.867 84.4728C118.867 85.4808 118.283 85.9848 117.115 85.9848H108.979ZM134.622 83.6088C134.862 83.9608 134.982 84.3048 134.982 84.6408C134.982 85.0888 134.798 85.4568 134.43 85.7448C134.078 86.0328 133.662 86.1768 133.182 86.1768C132.878 86.1768 132.582 86.1048 132.294 85.9608C132.006 85.8168 131.766 85.5928 131.574 85.2888L128.406 80.5848C128.134 80.1688 127.846 79.8728 127.542 79.6968C127.238 79.5048 126.854 79.4088 126.39 79.4088H124.446V84.2568C124.446 84.8328 124.278 85.2888 123.942 85.6248C123.622 85.9608 123.182 86.1288 122.622 86.1288C122.046 86.1288 121.59 85.9608 121.254 85.6248C120.918 85.2888 120.75 84.8328 120.75 84.2568V70.8168C120.75 70.2568 120.902 69.8248 121.206 69.5208C121.51 69.2168 121.942 69.0648 122.502 69.0648H128.526C130.51 69.0648 132.006 69.5048 133.014 70.3848C134.038 71.2488 134.55 72.5048 134.55 74.1528C134.55 75.4488 134.19 76.5288 133.47 77.3928C132.75 78.2568 131.734 78.8248 130.422 79.0968C130.902 79.1928 131.326 79.3848 131.694 79.6728C132.078 79.9448 132.446 80.3448 132.798 80.8728L134.622 83.6088ZM127.974 76.5768C129.046 76.5768 129.822 76.3928 130.302 76.0248C130.782 75.6408 131.022 75.0488 131.022 74.2488C131.022 73.4328 130.782 72.8408 130.302 72.4728C129.822 72.1048 129.046 71.9208 127.974 71.9208H124.398V76.5768H127.974Z" fill="black"/>
<defs>
<filter id="filter0_d" x="0" y="0" width="435" height="190" filterUnits="userSpaceOnUse" color-interpolation-filters="sRGB">
<feFlood flood-opacity="0" result="BackgroundImageFix"/>
<feColorMatrix in="SourceAlpha" type="matrix" values="0 0 0 0 0 0 0 0 0 0 0 0 0 0 0 0 0 0 127 0" result="hardAlpha"/>
<feOffset dy="7"/>
<feGaussianBlur stdDeviation="27"/>
<feColorMatrix type="matrix" values="0 0 0 0 0 0 0 0 0 0 0 0 0 0 0 0 0 0 0.06 0"/>
<feBlend mode="normal" in2="BackgroundImageFix" result="effect1_dropShadow"/>
<feBlend mode="normal" in="SourceGraphic" in2="effect1_dropShadow" result="shape"/>
</filter>
</defs>
</svg>
