<svg width="327" height="204" viewBox="0 0 327 204" fill="none" xmlns="http://www.w3.org/2000/svg">
<rect width="327" height="204" rx="32" fill="#092C4C"/>
<mask id="mask0" style="mask-type:alpha" maskUnits="userSpaceOnUse" x="0" y="0" width="327" height="204">
<rect width="327" height="204" rx="32" fill="#10A5F9"/>
</mask>
<g mask="url(#mask0)">
<path opacity="0.6" d="M255 73C269 12.2 226.833 -9.66666 204 -13C228.667 -15.3333 284.3 -18.6 309.5 -13C341 -5.99999 389 73 397.5 140C406 207 327.5 215.5 260.5 222.5C193.5 229.5 237.5 149 255 73Z" stroke="white" stroke-width="0.5"/>
<path opacity="0.6" d="M271 71.092C285 10.292 242.833 -11.5746 220 -14.908C244.667 -17.2413 300.3 -20.508 325.5 -14.908C357 -7.90795 405 71.0921 413.5 138.092C422 205.092 343.5 213.592 276.5 220.592C209.5 227.592 253.5 147.092 271 71.092Z" stroke="white" stroke-width="0.5"/>
<path opacity="0.6" d="M290 71.092C304 10.292 261.833 -11.5746 239 -14.908C263.667 -17.2413 319.3 -20.508 344.5 -14.908C376 -7.90795 424 71.0921 432.5 138.092C441 205.092 362.5 213.592 295.5 220.592C228.5 227.592 272.5 147.092 290 71.092Z" stroke="white" stroke-width="0.5"/>
<path opacity="0.6" d="M122 17.5C67.6 12.3 12 41.6667 -8.99999 57C-11.3333 39.1667 -14.6 1.29998 -8.99999 -7.50002C-1.99999 -18.5 181 -15 207.5 -11.5C234 -8.00002 260.5 71.5 216 84.5C171.5 97.5 190 24 122 17.5Z" stroke="white" stroke-width="0.5"/>
<path opacity="0.6" d="M94.0921 0.439148C39.6921 -4.76085 -15.908 24.6058 -36.908 39.9391C-39.2413 22.1058 -42.508 -15.7609 -36.908 -24.5609C-29.908 -35.5609 153.092 -32.0609 179.592 -28.5609C206.092 -25.0609 232.592 54.4391 188.092 67.4391C143.592 80.4391 162.092 6.93915 94.0921 0.439148Z" stroke="white" stroke-width="0.5"/>
<rect opacity="0.7" width="151.458" height="151.458" rx="32" transform="matrix(0.708189 0.706023 -0.708189 0.706023 38.0494 36)" fill="#E15C8D"/>
<rect opacity="0.7" width="151.458" height="151.458" rx="32" transform="matrix(-0.708189 -0.706023 0.708189 -0.706023 106.553 249.866)" fill="#6282FF"/>
</g>
<path d="M200.87 177.614C200.942 177.77 200.978 177.926 200.978 178.082C200.978 178.358 200.864 178.592 200.636 178.784C200.42 178.976 200.168 179.072 199.88 179.072C199.688 179.072 199.508 179.024 199.34 178.928C199.172 178.82 199.04 178.658 198.944 178.442L197.864 176.03H191.528L190.448 178.442C190.352 178.658 190.22 178.82 190.052 178.928C189.884 179.024 189.698 179.072 189.494 179.072C189.218 179.072 188.966 178.976 188.738 178.784C188.51 178.592 188.396 178.358 188.396 178.082C188.396 177.926 188.432 177.77 188.504 177.614L193.472 166.94C193.58 166.7 193.742 166.52 193.958 166.4C194.186 166.268 194.426 166.202 194.678 166.202C194.93 166.202 195.164 166.268 195.38 166.4C195.608 166.52 195.776 166.7 195.884 166.94L200.87 177.614ZM192.32 174.23H197.072L194.696 168.884L192.32 174.23ZM209.873 166.22C210.209 166.22 210.485 166.316 210.701 166.508C210.917 166.7 211.025 166.952 211.025 167.264V178.028C211.025 178.352 210.923 178.61 210.719 178.802C210.515 178.994 210.245 179.09 209.909 179.09C209.573 179.09 209.303 178.994 209.099 178.802C208.895 178.61 208.793 178.352 208.793 178.028V177.578C208.529 178.07 208.145 178.454 207.641 178.73C207.149 179.006 206.585 179.144 205.949 179.144C205.193 179.144 204.515 178.952 203.915 178.568C203.327 178.184 202.865 177.644 202.529 176.948C202.205 176.24 202.043 175.43 202.043 174.518C202.043 173.606 202.205 172.808 202.529 172.124C202.865 171.44 203.327 170.912 203.915 170.54C204.503 170.168 205.181 169.982 205.949 169.982C206.585 169.982 207.149 170.114 207.641 170.378C208.133 170.642 208.511 171.014 208.775 171.494V167.228C208.775 166.928 208.871 166.688 209.063 166.508C209.267 166.316 209.537 166.22 209.873 166.22ZM206.543 177.398C207.263 177.398 207.815 177.152 208.199 176.66C208.595 176.168 208.793 175.466 208.793 174.554C208.793 173.642 208.595 172.946 208.199 172.466C207.815 171.974 207.269 171.728 206.561 171.728C205.841 171.728 205.283 171.968 204.887 172.448C204.491 172.928 204.293 173.618 204.293 174.518C204.293 175.43 204.491 176.138 204.887 176.642C205.283 177.146 205.835 177.398 206.543 177.398ZM217.156 169.982C218.38 169.982 219.286 170.288 219.874 170.9C220.474 171.5 220.774 172.418 220.774 173.654V178.046C220.774 178.37 220.678 178.628 220.486 178.82C220.294 179 220.03 179.09 219.694 179.09C219.382 179.09 219.124 178.994 218.92 178.802C218.728 178.61 218.632 178.358 218.632 178.046V177.65C218.428 178.118 218.104 178.484 217.66 178.748C217.228 179.012 216.724 179.144 216.148 179.144C215.56 179.144 215.026 179.024 214.546 178.784C214.066 178.544 213.688 178.214 213.412 177.794C213.136 177.374 212.998 176.906 212.998 176.39C212.998 175.742 213.16 175.232 213.484 174.86C213.82 174.488 214.36 174.218 215.104 174.05C215.848 173.882 216.874 173.798 218.182 173.798H218.632V173.384C218.632 172.796 218.506 172.37 218.254 172.106C218.002 171.83 217.594 171.692 217.03 171.692C216.682 171.692 216.328 171.746 215.968 171.854C215.608 171.95 215.182 172.094 214.69 172.286C214.378 172.442 214.15 172.52 214.006 172.52C213.79 172.52 213.61 172.442 213.466 172.286C213.334 172.13 213.268 171.926 213.268 171.674C213.268 171.47 213.316 171.296 213.412 171.152C213.52 170.996 213.694 170.852 213.934 170.72C214.354 170.492 214.852 170.312 215.428 170.18C216.016 170.048 216.592 169.982 217.156 169.982ZM216.598 177.524C217.198 177.524 217.684 177.326 218.056 176.93C218.44 176.522 218.632 176 218.632 175.364V174.986H218.308C217.504 174.986 216.88 175.022 216.436 175.094C215.992 175.166 215.674 175.292 215.482 175.472C215.29 175.652 215.194 175.898 215.194 176.21C215.194 176.594 215.326 176.912 215.59 177.164C215.866 177.404 216.202 177.524 216.598 177.524ZM228.173 169.982C229.229 169.982 230.015 170.282 230.531 170.882C231.047 171.482 231.305 172.388 231.305 173.6V178.028C231.305 178.364 231.203 178.628 230.999 178.82C230.807 179.012 230.537 179.108 230.189 179.108C229.841 179.108 229.565 179.012 229.361 178.82C229.157 178.628 229.055 178.364 229.055 178.028V173.726C229.055 173.042 228.923 172.544 228.659 172.232C228.407 171.92 228.005 171.764 227.453 171.764C226.805 171.764 226.283 171.968 225.887 172.376C225.503 172.784 225.311 173.33 225.311 174.014V178.028C225.311 178.364 225.209 178.628 225.005 178.82C224.801 179.012 224.525 179.108 224.177 179.108C223.829 179.108 223.553 179.012 223.349 178.82C223.157 178.628 223.061 178.364 223.061 178.028V171.062C223.061 170.75 223.163 170.498 223.367 170.306C223.571 170.114 223.847 170.018 224.195 170.018C224.507 170.018 224.759 170.114 224.951 170.306C225.155 170.486 225.257 170.726 225.257 171.026V171.512C225.557 171.02 225.959 170.642 226.463 170.378C226.967 170.114 227.537 169.982 228.173 169.982ZM234.706 179.108C234.382 179.108 234.112 179.018 233.896 178.838C233.692 178.646 233.59 178.376 233.59 178.028V171.08C233.59 170.732 233.692 170.468 233.896 170.288C234.112 170.108 234.382 170.018 234.706 170.018C235.03 170.018 235.3 170.108 235.516 170.288C235.732 170.468 235.84 170.732 235.84 171.08V178.028C235.84 178.376 235.732 178.646 235.516 178.838C235.3 179.018 235.03 179.108 234.706 179.108ZM234.706 168.416C234.298 168.416 233.974 168.308 233.734 168.092C233.494 167.864 233.374 167.57 233.374 167.21C233.374 166.85 233.494 166.562 233.734 166.346C233.974 166.13 234.298 166.022 234.706 166.022C235.102 166.022 235.42 166.13 235.66 166.346C235.912 166.562 236.038 166.85 236.038 167.21C236.038 167.57 235.918 167.864 235.678 168.092C235.438 168.308 235.114 168.416 234.706 168.416ZM254.513 166.22C254.849 166.22 255.119 166.328 255.323 166.544C255.527 166.748 255.629 167.024 255.629 167.372V178.028C255.629 178.364 255.533 178.628 255.341 178.82C255.149 179.012 254.897 179.108 254.585 179.108C254.273 179.108 254.027 179.012 253.847 178.82C253.667 178.628 253.577 178.364 253.577 178.028V170.612L250.517 176.408C250.373 176.672 250.217 176.87 250.049 177.002C249.881 177.122 249.683 177.182 249.455 177.182C249.227 177.182 249.029 177.122 248.861 177.002C248.693 176.882 248.537 176.684 248.393 176.408L245.315 170.702V178.028C245.315 178.352 245.219 178.616 245.027 178.82C244.847 179.012 244.601 179.108 244.289 179.108C243.977 179.108 243.731 179.012 243.551 178.82C243.371 178.628 243.281 178.364 243.281 178.028V167.372C243.281 167.024 243.377 166.748 243.569 166.544C243.773 166.328 244.043 166.22 244.379 166.22C244.847 166.22 245.213 166.478 245.477 166.994L249.473 174.608L253.451 166.994C253.715 166.478 254.069 166.22 254.513 166.22ZM265.148 176.588C265.352 176.588 265.514 176.666 265.634 176.822C265.766 176.978 265.832 177.188 265.832 177.452C265.832 177.824 265.61 178.136 265.166 178.388C264.758 178.616 264.296 178.802 263.78 178.946C263.264 179.078 262.772 179.144 262.304 179.144C260.888 179.144 259.766 178.736 258.938 177.92C258.11 177.104 257.696 175.988 257.696 174.572C257.696 173.672 257.876 172.874 258.236 172.178C258.596 171.482 259.1 170.942 259.748 170.558C260.408 170.174 261.152 169.982 261.98 169.982C262.772 169.982 263.462 170.156 264.05 170.504C264.638 170.852 265.094 171.344 265.418 171.98C265.742 172.616 265.904 173.366 265.904 174.23C265.904 174.746 265.676 175.004 265.22 175.004H259.91C259.982 175.832 260.216 176.444 260.612 176.84C261.008 177.224 261.584 177.416 262.34 177.416C262.724 177.416 263.06 177.368 263.348 177.272C263.648 177.176 263.984 177.044 264.356 176.876C264.716 176.684 264.98 176.588 265.148 176.588ZM262.034 171.566C261.422 171.566 260.93 171.758 260.558 172.142C260.198 172.526 259.982 173.078 259.91 173.798H263.978C263.954 173.066 263.774 172.514 263.438 172.142C263.102 171.758 262.634 171.566 262.034 171.566ZM278.202 169.982C279.162 169.982 279.894 170.27 280.398 170.846C280.914 171.41 281.172 172.328 281.172 173.6V178.028C281.172 178.376 281.064 178.646 280.848 178.838C280.644 179.018 280.374 179.108 280.038 179.108C279.714 179.108 279.444 179.018 279.228 178.838C279.024 178.646 278.922 178.376 278.922 178.028V173.6C278.922 172.94 278.802 172.472 278.562 172.196C278.334 171.908 277.98 171.764 277.5 171.764C276.912 171.764 276.444 171.968 276.096 172.376C275.748 172.772 275.574 173.318 275.574 174.014V178.028C275.574 178.376 275.466 178.646 275.25 178.838C275.046 179.018 274.782 179.108 274.458 179.108C274.134 179.108 273.864 179.018 273.648 178.838C273.432 178.646 273.324 178.376 273.324 178.028V173.6C273.324 172.94 273.204 172.472 272.964 172.196C272.736 171.908 272.382 171.764 271.902 171.764C271.314 171.764 270.846 171.968 270.498 172.376C270.162 172.772 269.994 173.318 269.994 174.014V178.028C269.994 178.376 269.886 178.646 269.67 178.838C269.454 179.018 269.184 179.108 268.86 179.108C268.536 179.108 268.266 179.018 268.05 178.838C267.846 178.646 267.744 178.376 267.744 178.028V171.062C267.744 170.726 267.852 170.468 268.068 170.288C268.284 170.108 268.554 170.018 268.878 170.018C269.19 170.018 269.442 170.108 269.634 170.288C269.838 170.456 269.94 170.702 269.94 171.026V171.458C270.216 170.978 270.582 170.612 271.038 170.36C271.506 170.108 272.04 169.982 272.64 169.982C273.96 169.982 274.842 170.534 275.286 171.638C275.55 171.134 275.94 170.732 276.456 170.432C276.972 170.132 277.554 169.982 278.202 169.982ZM288.517 169.982C289.285 169.982 289.963 170.168 290.551 170.54C291.139 170.912 291.595 171.44 291.919 172.124C292.255 172.808 292.423 173.606 292.423 174.518C292.423 175.43 292.255 176.24 291.919 176.948C291.595 177.644 291.133 178.184 290.533 178.568C289.945 178.952 289.273 179.144 288.517 179.144C287.881 179.144 287.311 179.006 286.807 178.73C286.315 178.454 285.937 178.07 285.673 177.578V178.028C285.673 178.352 285.571 178.61 285.367 178.802C285.163 178.994 284.893 179.09 284.557 179.09C284.221 179.09 283.951 178.994 283.747 178.802C283.555 178.61 283.459 178.352 283.459 178.028V167.264C283.459 166.952 283.561 166.7 283.765 166.508C283.981 166.316 284.257 166.22 284.593 166.22C284.929 166.22 285.199 166.31 285.403 166.49C285.607 166.67 285.709 166.916 285.709 167.228V171.476C285.973 170.996 286.351 170.63 286.843 170.378C287.335 170.114 287.893 169.982 288.517 169.982ZM287.923 177.398C288.631 177.398 289.183 177.146 289.579 176.642C289.975 176.138 290.173 175.43 290.173 174.518C290.173 173.618 289.975 172.928 289.579 172.448C289.195 171.968 288.643 171.728 287.923 171.728C287.203 171.728 286.645 171.974 286.249 172.466C285.865 172.946 285.673 173.642 285.673 174.554C285.673 175.466 285.865 176.168 286.249 176.66C286.645 177.152 287.203 177.398 287.923 177.398ZM301.236 176.588C301.44 176.588 301.602 176.666 301.722 176.822C301.854 176.978 301.92 177.188 301.92 177.452C301.92 177.824 301.698 178.136 301.254 178.388C300.846 178.616 300.384 178.802 299.868 178.946C299.352 179.078 298.86 179.144 298.392 179.144C296.976 179.144 295.854 178.736 295.026 177.92C294.198 177.104 293.784 175.988 293.784 174.572C293.784 173.672 293.964 172.874 294.324 172.178C294.684 171.482 295.188 170.942 295.836 170.558C296.496 170.174 297.24 169.982 298.068 169.982C298.86 169.982 299.55 170.156 300.138 170.504C300.726 170.852 301.182 171.344 301.506 171.98C301.83 172.616 301.992 173.366 301.992 174.23C301.992 174.746 301.764 175.004 301.308 175.004H295.998C296.07 175.832 296.304 176.444 296.7 176.84C297.096 177.224 297.672 177.416 298.428 177.416C298.812 177.416 299.148 177.368 299.436 177.272C299.736 177.176 300.072 177.044 300.444 176.876C300.804 176.684 301.068 176.588 301.236 176.588ZM298.122 171.566C297.51 171.566 297.018 171.758 296.646 172.142C296.286 172.526 296.07 173.078 295.998 173.798H300.066C300.042 173.066 299.862 172.514 299.526 172.142C299.19 171.758 298.722 171.566 298.122 171.566ZM308.746 170.018C309.058 169.994 309.304 170.06 309.484 170.216C309.664 170.372 309.754 170.606 309.754 170.918C309.754 171.242 309.676 171.482 309.52 171.638C309.364 171.794 309.082 171.896 308.674 171.944L308.134 171.998C307.426 172.07 306.904 172.31 306.568 172.718C306.244 173.126 306.082 173.636 306.082 174.248V178.028C306.082 178.376 305.974 178.646 305.758 178.838C305.542 179.018 305.272 179.108 304.948 179.108C304.624 179.108 304.354 179.018 304.138 178.838C303.934 178.646 303.832 178.376 303.832 178.028V171.062C303.832 170.726 303.934 170.468 304.138 170.288C304.354 170.108 304.618 170.018 304.93 170.018C305.242 170.018 305.494 170.108 305.686 170.288C305.878 170.456 305.974 170.702 305.974 171.026V171.746C306.202 171.218 306.538 170.81 306.982 170.522C307.438 170.234 307.942 170.072 308.494 170.036L308.746 170.018Z" fill="#FCFCFC"/>
<path d="M33.808 27.904C34.0533 27.904 34.2507 27.9787 34.4 28.128C34.5493 28.2667 34.624 28.4533 34.624 28.688V32.128C34.624 32.6187 34.56 32.9653 34.432 33.168C34.304 33.3707 34.0427 33.536 33.648 33.664C33.2213 33.8133 32.7253 33.9307 32.16 34.016C31.5947 34.1013 31.0507 34.144 30.528 34.144C29.3653 34.144 28.3573 33.9147 27.504 33.456C26.6507 32.9973 25.9947 32.336 25.536 31.472C25.088 30.5973 24.864 29.5573 24.864 28.352C24.864 27.168 25.088 26.144 25.536 25.28C25.9947 24.4053 26.64 23.7387 27.472 23.28C28.304 22.8107 29.2853 22.576 30.416 22.576C31.92 22.576 33.152 22.9813 34.112 23.792C34.24 23.9093 34.3307 24.0267 34.384 24.144C34.448 24.2613 34.48 24.4 34.48 24.56C34.48 24.7947 34.416 24.992 34.288 25.152C34.16 25.312 34.0053 25.392 33.824 25.392C33.7067 25.392 33.6 25.376 33.504 25.344C33.408 25.3013 33.296 25.2373 33.168 25.152C32.6987 24.8213 32.2613 24.592 31.856 24.464C31.4507 24.3253 30.992 24.256 30.48 24.256C29.3173 24.256 28.4373 24.6027 27.84 25.296C27.2533 25.9787 26.96 26.9973 26.96 28.352C26.96 31.1253 28.176 32.512 30.608 32.512C31.3333 32.512 32.0587 32.4107 32.784 32.208V29.376H30.976C30.72 29.376 30.5173 29.312 30.368 29.184C30.2293 29.056 30.16 28.8747 30.16 28.64C30.16 28.4053 30.2293 28.224 30.368 28.096C30.5173 27.968 30.72 27.904 30.976 27.904H33.808ZM40.3424 34.128C39.5424 34.128 38.8384 33.9627 38.2304 33.632C37.633 33.3013 37.169 32.8267 36.8384 32.208C36.5077 31.5893 36.3424 30.8693 36.3424 30.048C36.3424 29.2267 36.5077 28.512 36.8384 27.904C37.169 27.2853 37.633 26.8107 38.2304 26.48C38.8384 26.1493 39.5424 25.984 40.3424 25.984C41.1424 25.984 41.841 26.1493 42.4384 26.48C43.0464 26.8107 43.5104 27.2853 43.8304 27.904C44.161 28.512 44.3264 29.2267 44.3264 30.048C44.3264 30.8693 44.161 31.5893 43.8304 32.208C43.5104 32.8267 43.0464 33.3013 42.4384 33.632C41.841 33.9627 41.1424 34.128 40.3424 34.128ZM40.3264 32.576C40.977 32.576 41.473 32.3627 41.8144 31.936C42.1557 31.5093 42.3264 30.88 42.3264 30.048C42.3264 29.2267 42.1557 28.6027 41.8144 28.176C41.473 27.7387 40.9824 27.52 40.3424 27.52C39.7024 27.52 39.2064 27.7387 38.8544 28.176C38.513 28.6027 38.3424 29.2267 38.3424 30.048C38.3424 30.88 38.513 31.5093 38.8544 31.936C39.1957 32.3627 39.6864 32.576 40.3264 32.576ZM46.9695 34.096C46.6815 34.096 46.4415 34.016 46.2495 33.856C46.0682 33.6853 45.9775 33.4453 45.9775 33.136V23.584C45.9775 23.2747 46.0682 23.04 46.2495 22.88C46.4415 22.72 46.6815 22.64 46.9695 22.64C47.2575 22.64 47.4975 22.72 47.6895 22.88C47.8815 23.04 47.9775 23.2747 47.9775 23.584V33.136C47.9775 33.4453 47.8815 33.6853 47.6895 33.856C47.4975 34.016 47.2575 34.096 46.9695 34.096ZM56.568 22.64C56.8667 22.64 57.112 22.7253 57.304 22.896C57.496 23.0667 57.592 23.2907 57.592 23.568V33.136C57.592 33.424 57.5013 33.6533 57.32 33.824C57.1387 33.9947 56.8987 34.08 56.6 34.08C56.3013 34.08 56.0613 33.9947 55.88 33.824C55.6987 33.6533 55.608 33.424 55.608 33.136V32.736C55.3733 33.1733 55.032 33.5147 54.584 33.76C54.1467 34.0053 53.6453 34.128 53.08 34.128C52.408 34.128 51.8053 33.9573 51.272 33.616C50.7493 33.2747 50.3387 32.7947 50.04 32.176C49.752 31.5467 49.608 30.8267 49.608 30.016C49.608 29.2053 49.752 28.496 50.04 27.888C50.3387 27.28 50.7493 26.8107 51.272 26.48C51.7947 26.1493 52.3973 25.984 53.08 25.984C53.6453 25.984 54.1467 26.1013 54.584 26.336C55.0213 26.5707 55.3573 26.9013 55.592 27.328V23.536C55.592 23.2693 55.6773 23.056 55.848 22.896C56.0293 22.7253 56.2693 22.64 56.568 22.64ZM53.608 32.576C54.248 32.576 54.7387 32.3573 55.08 31.92C55.432 31.4827 55.608 30.8587 55.608 30.048C55.608 29.2373 55.432 28.6187 55.08 28.192C54.7387 27.7547 54.2533 27.536 53.624 27.536C52.984 27.536 52.488 27.7493 52.136 28.176C51.784 28.6027 51.608 29.216 51.608 30.016C51.608 30.8267 51.784 31.456 52.136 31.904C52.488 32.352 52.9787 32.576 53.608 32.576ZM74.1851 22.64C74.4838 22.64 74.7238 22.736 74.9051 22.928C75.0865 23.1093 75.1771 23.3547 75.1771 23.664V33.136C75.1771 33.4347 75.0918 33.6693 74.9211 33.84C74.7505 34.0107 74.5265 34.096 74.2491 34.096C73.9718 34.096 73.7531 34.0107 73.5931 33.84C73.4331 33.6693 73.3531 33.4347 73.3531 33.136V26.544L70.6331 31.696C70.5051 31.9307 70.3665 32.1067 70.2171 32.224C70.0678 32.3307 69.8918 32.384 69.6891 32.384C69.4865 32.384 69.3105 32.3307 69.1611 32.224C69.0118 32.1173 68.8731 31.9413 68.7451 31.696L66.0091 26.624V33.136C66.0091 33.424 65.9238 33.6587 65.7531 33.84C65.5931 34.0107 65.3745 34.096 65.0971 34.096C64.8198 34.096 64.6011 34.0107 64.4411 33.84C64.2811 33.6693 64.2011 33.4347 64.2011 33.136V23.664C64.2011 23.3547 64.2865 23.1093 64.4571 22.928C64.6385 22.736 64.8785 22.64 65.1771 22.64C65.5931 22.64 65.9185 22.8693 66.1531 23.328L69.7051 30.096L73.2411 23.328C73.4758 22.8693 73.7905 22.64 74.1851 22.64ZM83.6383 31.856C83.8196 31.856 83.9636 31.9253 84.0703 32.064C84.1876 32.2027 84.2463 32.3893 84.2463 32.624C84.2463 32.9547 84.0489 33.232 83.6543 33.456C83.2916 33.6587 82.8809 33.824 82.4223 33.952C81.9636 34.0693 81.5263 34.128 81.1102 34.128C79.8516 34.128 78.8543 33.7653 78.1183 33.04C77.3823 32.3147 77.0143 31.3227 77.0143 30.064C77.0143 29.264 77.1743 28.5547 77.4943 27.936C77.8143 27.3173 78.2623 26.8373 78.8383 26.496C79.4249 26.1547 80.0863 25.984 80.8223 25.984C81.5263 25.984 82.1396 26.1387 82.6623 26.448C83.1849 26.7573 83.5903 27.1947 83.8783 27.76C84.1663 28.3253 84.3103 28.992 84.3103 29.76C84.3103 30.2187 84.1076 30.448 83.7023 30.448H78.9823C79.0463 31.184 79.2543 31.728 79.6063 32.08C79.9583 32.4213 80.4703 32.592 81.1423 32.592C81.4836 32.592 81.7823 32.5493 82.0383 32.464C82.3049 32.3787 82.6036 32.2613 82.9343 32.112C83.2543 31.9413 83.4889 31.856 83.6383 31.856ZM80.8703 27.392C80.3263 27.392 79.8889 27.5627 79.5583 27.904C79.2383 28.2453 79.0463 28.736 78.9823 29.376H82.5983C82.5769 28.7253 82.4169 28.2347 82.1183 27.904C81.8196 27.5627 81.4036 27.392 80.8703 27.392ZM95.2423 25.984C96.0956 25.984 96.7463 26.24 97.1943 26.752C97.6529 27.2533 97.8823 28.0693 97.8823 29.2V33.136C97.8823 33.4453 97.7863 33.6853 97.5943 33.856C97.4129 34.016 97.1729 34.096 96.8743 34.096C96.5863 34.096 96.3463 34.016 96.1543 33.856C95.9729 33.6853 95.8823 33.4453 95.8823 33.136V29.2C95.8823 28.6133 95.7756 28.1973 95.5623 27.952C95.3596 27.696 95.0449 27.568 94.6183 27.568C94.0956 27.568 93.6796 27.7493 93.3703 28.112C93.0609 28.464 92.9062 28.9493 92.9062 29.568V33.136C92.9062 33.4453 92.8103 33.6853 92.6183 33.856C92.4369 34.016 92.2023 34.096 91.9143 34.096C91.6263 34.096 91.3863 34.016 91.1943 33.856C91.0023 33.6853 90.9063 33.4453 90.9063 33.136V29.2C90.9063 28.6133 90.7996 28.1973 90.5863 27.952C90.3836 27.696 90.0689 27.568 89.6423 27.568C89.1196 27.568 88.7036 27.7493 88.3943 28.112C88.0956 28.464 87.9463 28.9493 87.9463 29.568V33.136C87.9463 33.4453 87.8503 33.6853 87.6583 33.856C87.4663 34.016 87.2263 34.096 86.9383 34.096C86.6503 34.096 86.4103 34.016 86.2183 33.856C86.0369 33.6853 85.9463 33.4453 85.9463 33.136V26.944C85.9463 26.6453 86.0423 26.416 86.2343 26.256C86.4263 26.096 86.6663 26.016 86.9543 26.016C87.2316 26.016 87.4556 26.096 87.6263 26.256C87.8076 26.4053 87.8983 26.624 87.8983 26.912V27.296C88.1436 26.8693 88.4689 26.544 88.8743 26.32C89.2903 26.096 89.7649 25.984 90.2983 25.984C91.4716 25.984 92.2556 26.4747 92.6503 27.456C92.8849 27.008 93.2316 26.6507 93.6903 26.384C94.1489 26.1173 94.6663 25.984 95.2423 25.984ZM104.411 25.984C105.094 25.984 105.696 26.1493 106.219 26.48C106.742 26.8107 107.147 27.28 107.435 27.888C107.734 28.496 107.883 29.2053 107.883 30.016C107.883 30.8267 107.734 31.5467 107.435 32.176C107.147 32.7947 106.736 33.2747 106.203 33.616C105.68 33.9573 105.083 34.128 104.411 34.128C103.846 34.128 103.339 34.0053 102.891 33.76C102.454 33.5147 102.118 33.1733 101.883 32.736V33.136C101.883 33.424 101.792 33.6533 101.611 33.824C101.43 33.9947 101.19 34.08 100.891 34.08C100.592 34.08 100.352 33.9947 100.171 33.824C100 33.6533 99.915 33.424 99.915 33.136V23.568C99.915 23.2907 100.006 23.0667 100.187 22.896C100.379 22.7253 100.624 22.64 100.923 22.64C101.222 22.64 101.462 22.72 101.643 22.88C101.824 23.04 101.915 23.2587 101.915 23.536V27.312C102.15 26.8853 102.486 26.56 102.923 26.336C103.36 26.1013 103.856 25.984 104.411 25.984ZM103.883 32.576C104.512 32.576 105.003 32.352 105.355 31.904C105.707 31.456 105.883 30.8267 105.883 30.016C105.883 29.216 105.707 28.6027 105.355 28.176C105.014 27.7493 104.523 27.536 103.883 27.536C103.243 27.536 102.747 27.7547 102.395 28.192C102.054 28.6187 101.883 29.2373 101.883 30.048C101.883 30.8587 102.054 31.4827 102.395 31.92C102.747 32.3573 103.243 32.576 103.883 32.576ZM115.716 31.856C115.898 31.856 116.042 31.9253 116.148 32.064C116.266 32.2027 116.324 32.3893 116.324 32.624C116.324 32.9547 116.127 33.232 115.732 33.456C115.37 33.6587 114.959 33.824 114.5 33.952C114.042 34.0693 113.604 34.128 113.188 34.128C111.93 34.128 110.932 33.7653 110.196 33.04C109.46 32.3147 109.092 31.3227 109.092 30.064C109.092 29.264 109.252 28.5547 109.572 27.936C109.892 27.3173 110.34 26.8373 110.916 26.496C111.503 26.1547 112.164 25.984 112.9 25.984C113.604 25.984 114.218 26.1387 114.74 26.448C115.263 26.7573 115.668 27.1947 115.956 27.76C116.244 28.3253 116.388 28.992 116.388 29.76C116.388 30.2187 116.186 30.448 115.78 30.448H111.06C111.124 31.184 111.332 31.728 111.684 32.08C112.036 32.4213 112.548 32.592 113.22 32.592C113.562 32.592 113.86 32.5493 114.116 32.464C114.383 32.3787 114.682 32.2613 115.012 32.112C115.332 31.9413 115.567 31.856 115.716 31.856ZM112.948 27.392C112.404 27.392 111.967 27.5627 111.636 27.904C111.316 28.2453 111.124 28.736 111.06 29.376H114.676C114.655 28.7253 114.495 28.2347 114.196 27.904C113.898 27.5627 113.482 27.392 112.948 27.392ZM122.392 26.016C122.67 25.9947 122.888 26.0533 123.048 26.192C123.208 26.3307 123.288 26.5387 123.288 26.816C123.288 27.104 123.219 27.3173 123.08 27.456C122.942 27.5947 122.691 27.6853 122.328 27.728L121.848 27.776C121.219 27.84 120.755 28.0533 120.456 28.416C120.168 28.7787 120.024 29.232 120.024 29.776V33.136C120.024 33.4453 119.928 33.6853 119.736 33.856C119.544 34.016 119.304 34.096 119.016 34.096C118.728 34.096 118.488 34.016 118.296 33.856C118.115 33.6853 118.024 33.4453 118.024 33.136V26.944C118.024 26.6453 118.115 26.416 118.296 26.256C118.488 26.096 118.723 26.016 119 26.016C119.278 26.016 119.502 26.096 119.672 26.256C119.843 26.4053 119.928 26.624 119.928 26.912V27.552C120.131 27.0827 120.43 26.72 120.824 26.464C121.23 26.208 121.678 26.064 122.168 26.032L122.392 26.016Z" fill="#FCFCFC"/>
</svg>
